<svg xmlns="http://www.w3.org/2000/svg" viewBox="1100 0 600 380" width="600" height="380" role="img" aria-label="Boundary hydrographs and stage templates">
<style>
  .bc-marker:hover circle { stroke-width: 6; }
  .bc-panel { pointer-events: auto; }
  .bc-text { font-family: Inter, ui-sans-serif, system-ui, -apple-system, BlinkMacSystemFont, "Segoe UI", sans-serif; }
</style>
<title>Boundary hydrographs and stage templates</title>

  <g class="bc-marker" transform="translate(544.8 604.8)">
    <title>Budameru inflow boundary | scale 1.00 | selected peak 1550 m3/s | UTM 459235, 1829876</title>
    <circle r="18" fill="none" stroke="#1d4ed8" stroke-width="4"/>
    <circle r="7" fill="#1d4ed8" stroke="white" stroke-width="2"/>
    <path d="M -25 0 L -10 0 M 10 0 L 25 0 M 0 -25 L 0 -10 M 0 10 L 0 25" stroke="#1d4ed8" stroke-width="3" stroke-linecap="round"/>
    <text x="24" y="-18" font-size="16" font-weight="700" fill="#1e3a8a" stroke="white" stroke-width="3" paint-order="stroke">Budameru inflow BC</text>
  </g>
<g class="bc-panel bc-text">
  <rect x="1118" y="22" width="560" height="342" rx="8" fill="white" fill-opacity="0.90" stroke="#94a3b8"/>
  <text x="1138" y="50" font-size="18" font-weight="760" fill="#0f172a">Boundary forcing used by current run</text>
  <text x="1138" y="71" font-size="12" fill="#475569">Budameru inflow hydrograph from NRSC/APSAC digitization; current run window highlighted.</text>
  <rect x="1152" y="94" width="492" height="128" fill="#f8fafc" stroke="#dbe2ea"/>
  <line x1="1152" y1="222" x2="1644" y2="222" stroke="#64748b"/>
  <line x1="1152" y1="94" x2="1152" y2="222" stroke="#64748b"/>
  <rect x="1403.2" y="94" width="27.3" height="128" fill="#fed7aa" fill-opacity="0.72"/>
  <polyline points="1152.0,209.6 1152.7,209.6 1153.4,209.6 1154.1,209.6 1154.8,209.6 1155.5,209.6 1156.2,209.6 1156.9,209.6 1157.6,209.6 1158.3,209.6 1159.0,209.6 1159.7,209.6 1160.4,209.6 1161.2,209.6 1161.9,209.6 1162.5,209.6 1163.3,209.6 1164.0,209.6 1164.7,209.6 1165.4,209.6 1166.1,209.6 1166.8,209.6 1167.5,209.6 1168.2,209.6 1168.9,209.6 1169.6,209.6 1170.3,209.6 1171.0,209.6 1171.7,209.6 1172.4,209.6 1173.1,209.6 1173.8,209.6 1174.5,209.6 1175.2,209.6 1175.9,209.6 1176.6,209.6 1177.3,209.6 1178.0,209.6 1178.8,209.6 1179.4,209.6 1180.2,209.6 1180.9,209.6 1181.6,209.6 1182.2,209.6 1183.0,209.6 1183.7,209.6 1184.4,209.6 1185.1,209.6 1185.8,209.6 1186.5,209.6 1187.2,209.6 1187.9,209.6 1188.6,209.6 1189.3,209.6 1190.0,209.6 1190.7,209.6 1191.4,209.6 1192.1,209.6 1192.8,209.6 1193.5,209.6 1194.2,209.6 1194.9,209.6 1195.7,209.6 1196.3,209.6 1197.1,209.6 1197.7,209.6 1198.5,209.6 1199.2,209.6 1199.9,209.6 1200.6,209.6 1201.3,209.6 1202.0,209.6 1202.7,209.6 1203.4,209.6 1204.1,209.6 1204.8,209.6 1205.5,209.6 1206.2,209.6 1206.9,209.6 1207.6,209.6 1208.3,209.6 1209.0,209.6 1209.7,209.6 1210.4,209.6 1211.1,209.6 1211.8,209.6 1212.5,209.6 1213.2,209.6 1214.0,209.6 1214.6,209.6 1215.4,209.6 1216.1,209.6 1216.8,209.6 1217.4,209.6 1218.2,209.6 1218.9,209.6 1219.6,209.6 1220.3,209.6 1221.0,209.6 1221.7,209.6 1222.4,209.6 1223.1,209.6 1223.8,209.6 1224.5,209.6 1225.2,209.6 1225.9,209.6 1226.6,209.6 1227.3,209.6 1228.0,209.6 1228.7,209.6 1229.4,209.6 1230.1,209.6 1230.9,209.6 1231.5,209.6 1232.2,209.6 1232.9,209.6 1233.7,209.6 1234.3,209.6 1235.1,209.6 1235.8,209.6 1236.5,209.6 1237.1,209.6 1237.9,209.6 1238.6,209.6 1239.3,209.6 1240.0,209.6 1240.7,209.6 1241.4,209.6 1242.1,209.6 1242.8,209.6 1243.5,209.6 1244.2,209.6 1244.9,209.6 1245.6,209.6 1246.3,209.6 1247.0,209.6 1247.7,209.6 1248.4,209.6 1249.1,209.6 1249.8,209.6 1250.6,209.6 1251.2,209.6 1251.9,209.6 1252.6,209.6 1253.4,209.6 1254.0,209.6 1254.8,209.6 1255.5,209.6 1256.2,209.6 1256.9,209.6 1257.6,209.6 1258.3,209.6 1259.0,209.6 1259.7,209.6 1260.4,209.6 1261.1,209.6 1261.8,209.6 1262.5,209.6 1263.2,209.6 1263.9,209.6 1264.6,209.6 1265.3,209.6 1266.0,209.6 1266.7,209.6 1267.4,209.6 1268.1,209.6 1268.8,209.6 1269.5,209.6 1270.3,209.6 1270.9,209.6 1271.7,209.6 1272.3,209.6 1273.1,209.6 1273.8,209.6 1274.5,209.6 1275.2,209.6 1275.9,209.6 1276.6,209.6 1277.3,209.6 1278.0,209.6 1278.7,209.6 1279.4,209.6 1280.1,209.6 1280.8,209.6 1281.5,209.6 1282.2,209.6 1282.9,209.6 1283.6,209.6 1284.3,209.6 1285.0,209.6 1285.8,209.6 1286.4,209.6 1287.1,209.6 1287.8,209.6 1288.6,209.6 1289.2,209.6 1290.0,209.6 1290.7,209.6 1291.4,209.6 1292.1,209.6 1292.8,209.5 1293.5,209.4 1294.2,209.4 1294.9,209.4 1295.6,209.4 1296.3,209.4 1297.0,209.4 1297.7,209.3 1298.4,209.3 1299.1,209.3 1299.8,209.3 1300.5,209.3 1301.2,209.2 1301.9,209.2 1302.6,209.2 1303.3,209.0 1304.0,209.0 1304.7,209.0 1305.5,208.9 1306.1,208.8 1306.8,208.8 1307.6,208.7 1308.3,208.6 1309.0,208.5 1309.7,208.4 1310.4,208.3 1311.1,208.3 1311.8,208.2 1312.5,208.0 1313.2,208.0 1313.9,207.8 1314.6,207.7 1315.3,207.6 1316.0,207.4 1316.7,207.3 1317.4,207.2 1318.1,207.1 1318.8,206.9 1319.5,206.7 1320.2,206.6 1320.9,206.5 1321.6,206.2 1322.3,206.1 1323.0,206.0 1323.7,205.8 1324.4,205.6 1325.2,205.4 1325.9,205.3 1326.5,205.2 1327.3,204.9 1328.0,204.7 1328.7,204.5 1329.4,204.4 1330.1,204.2 1330.8,204.0 1331.5,203.8 1332.2,203.6 1332.9,203.4 1333.6,203.2 1334.3,203.1 1335.0,202.8 1335.7,202.7 1336.4,202.5 1337.1,202.2 1337.8,202.1 1338.5,201.8 1339.2,201.5 1339.9,201.2 1340.6,200.7 1341.3,200.3 1342.0,199.8 1342.8,199.3 1343.4,198.8 1344.2,198.3 1344.9,197.6 1345.6,196.9 1346.2,196.2 1347.0,195.4 1347.7,194.6 1348.4,193.7 1349.1,192.8 1349.8,191.7 1350.5,190.7 1351.2,189.5 1351.9,188.3 1352.6,186.9 1353.3,185.6 1354.0,184.3 1354.7,182.7 1355.4,181.5 1356.1,179.8 1356.8,178.3 1357.5,176.8 1358.2,174.9 1358.9,173.4 1359.7,171.8 1360.3,169.8 1361.1,168.3 1361.7,166.5 1362.5,164.6 1363.2,163.0 1363.9,160.9 1364.6,159.3 1365.3,157.3 1366.0,155.4 1366.7,153.7 1367.4,151.8 1368.1,149.8 1368.8,148.1 1369.5,146.1 1370.2,144.2 1370.9,142.4 1371.6,140.5 1372.3,138.8 1373.0,136.9 1373.7,135.2 1374.4,133.5 1375.1,131.8 1375.8,130.0 1376.5,128.4 1377.2,126.8 1378.0,125.2 1378.6,123.9 1379.4,122.1 1380.1,120.8 1380.8,119.4 1381.4,117.9 1382.2,116.7 1382.9,115.3 1383.6,114.1 1384.3,112.9 1385.0,111.6 1385.7,110.5 1386.4,109.5 1387.1,108.3 1387.8,107.3 1388.5,106.3 1389.2,105.4 1389.9,104.5 1390.6,103.6 1391.3,102.7 1392.0,102.0 1392.7,101.1 1393.4,100.5 1394.1,99.8 1394.9,99.1 1395.5,98.5 1396.2,97.9 1396.9,97.3 1397.7,96.8 1398.3,96.3 1399.1,95.9 1399.8,95.6 1400.5,95.1 1401.1,94.9 1401.9,94.6 1402.6,94.4 1403.3,94.2 1404.0,94.1 1404.7,94.0 1405.4,94.0 1406.1,94.0 1406.8,94.1 1407.5,94.2 1408.2,94.4 1408.9,94.5 1409.6,94.8 1410.3,95.0 1411.0,95.4 1411.7,95.7 1412.4,96.1 1413.1,96.4 1413.8,96.9 1414.6,97.2 1415.2,97.7 1415.9,98.2 1416.6,98.7 1417.4,99.3 1418.0,99.8 1418.8,100.3 1419.5,100.9 1420.2,101.3 1420.9,101.3 1421.6,101.3 1422.3,101.7 1423.0,101.5 1423.7,101.8 1424.4,101.9 1425.1,101.8 1425.8,101.8 1426.5,103.0 1427.2,102.5 1427.9,102.2 1428.6,104.3 1429.3,109.0 1430.0,109.6 1430.7,110.1 1431.4,110.7 1432.1,111.2 1432.8,111.7 1433.5,112.1 1434.3,112.6 1434.9,113.1 1435.7,113.5 1436.3,113.9 1437.1,114.4 1437.8,114.7 1438.5,115.2 1439.2,115.5 1439.9,115.8 1440.6,116.2 1441.3,116.5 1442.0,116.7 1442.7,117.0 1443.4,117.3 1444.1,117.6 1444.8,117.8 1445.5,118.1 1446.2,118.3 1446.9,118.5 1447.6,118.8 1448.3,119.1 1449.0,119.5 1449.8,120.0 1450.4,120.5 1451.1,121.0 1451.8,121.6 1452.6,122.2 1453.2,122.8 1454.0,123.5 1454.7,124.3 1455.4,125.1 1456.1,125.9 1456.8,126.7 1457.5,127.6 1458.2,128.6 1458.9,129.6 1459.6,130.7 1460.3,131.8 1461.0,132.8 1461.7,134.2 1462.4,135.2 1463.1,136.6 1463.8,138.0 1464.5,139.1 1465.2,140.5 1465.9,141.9 1466.6,143.2 1467.3,144.8 1468.0,146.1 1468.7,147.5 1469.5,149.0 1470.1,150.4 1470.8,151.9 1471.6,153.4 1472.3,154.8 1473.0,156.5 1473.7,157.8 1474.4,159.5 1475.1,160.9 1475.8,162.4 1476.5,164.0 1477.2,165.4 1477.9,166.8 1478.6,168.4 1479.3,169.8 1480.0,171.2 1480.7,172.6 1481.4,174.0 1482.1,175.4 1482.8,176.7 1483.5,178.0 1484.2,179.4 1484.9,180.7 1485.6,181.7 1486.3,183.1 1487.0,184.1 1487.7,185.2 1488.4,186.4 1489.2,187.3 1489.9,188.5 1490.5,189.4 1491.3,190.3 1492.0,191.2 1492.7,192.1 1493.4,192.9 1494.1,193.7 1494.8,194.5 1495.5,195.2 1496.2,196.0 1496.9,196.6 1497.6,197.3 1498.3,197.8 1499.0,198.5 1499.7,199.0 1500.4,199.5 1501.1,200.0 1501.8,200.5 1502.5,200.9 1503.2,201.4 1503.9,201.7 1504.6,202.2 1505.3,202.5 1506.0,202.9 1506.8,203.2 1507.4,203.5 1508.2,203.8 1508.9,204.1 1509.6,204.3 1510.2,204.5 1511.0,204.8 1511.7,204.9 1512.4,205.2 1513.1,205.4 1513.8,205.5 1514.5,205.7 1515.2,205.9 1515.9,206.0 1516.6,206.2 1517.3,206.3 1518.0,206.4 1518.7,206.6 1519.4,206.7 1520.1,206.7 1520.8,206.9 1521.5,207.1 1522.2,207.1 1522.9,207.2 1523.7,207.2 1524.3,207.4 1525.1,207.4 1525.7,207.5 1526.5,207.5 1527.2,207.6 1527.9,207.7 1528.6,207.7 1529.3,207.8 1530.0,207.8 1530.7,207.9 1531.4,207.9 1532.1,208.0 1532.8,208.0 1533.5,208.0 1534.2,208.1 1534.9,208.2 1535.6,208.2 1536.3,208.3 1537.0,208.2 1537.7,208.4 1538.4,208.4 1539.1,208.4 1539.8,208.4 1540.5,208.4 1541.2,208.4 1542.0,208.4 1542.6,208.4 1543.4,208.4 1544.1,208.4 1544.8,208.5 1545.4,208.6 1546.2,208.6 1546.9,208.6 1547.6,208.6 1548.3,208.6 1549.0,208.6 1549.7,208.6 1550.4,208.7 1551.1,208.7 1551.8,208.8 1552.5,208.8 1553.2,208.8 1553.9,208.8 1554.6,208.8 1555.3,208.8 1556.0,208.8 1556.7,208.8 1557.4,208.8 1558.1,208.7 1558.9,208.6 1559.5,208.4 1560.2,208.4 1560.9,208.2 1561.7,208.0 1562.3,207.9 1563.1,207.8 1563.8,207.5 1564.5,207.4 1565.1,207.1 1565.9,206.8 1566.6,206.6 1567.3,206.3 1568.0,206.0 1568.7,205.7 1569.4,205.3 1570.1,205.0 1570.8,204.6 1571.5,204.2 1572.2,203.8 1572.9,203.4 1573.6,202.9 1574.3,202.5 1575.0,202.1 1575.7,201.6 1576.4,201.1 1577.1,200.7 1577.8,200.2 1578.6,199.7 1579.2,199.3 1579.9,198.7 1580.6,198.2 1581.4,197.7 1582.0,197.2 1582.8,196.7 1583.5,196.2 1584.2,195.7 1584.9,195.2 1585.6,194.7 1586.3,194.2 1587.0,193.7 1587.7,193.2 1588.4,192.7 1589.1,192.1 1589.8,191.7 1590.5,191.2 1591.2,190.7 1591.9,190.3 1592.6,189.9 1593.3,189.4 1594.0,189.0 1594.7,188.6 1595.4,188.2 1596.1,187.8 1596.8,187.4 1597.5,187.1 1598.3,186.6 1598.9,186.2 1599.7,185.9 1600.3,185.6 1601.1,185.3 1601.8,185.0 1602.5,184.7 1603.2,184.5 1603.9,184.2 1604.6,183.9 1605.3,183.7 1606.0,183.4 1606.7,183.2 1607.4,183.0 1608.1,182.8 1608.8,182.6 1609.5,182.4 1610.2,182.3 1610.9,182.1 1611.6,181.9 1612.3,181.7 1613.0,181.6 1613.8,181.4 1614.4,181.2 1615.1,181.1 1615.8,180.9 1616.6,180.7 1617.2,180.6 1618.0,180.5 1618.7,180.3 1619.4,180.3 1620.1,180.1 1620.8,180.0 1621.5,179.9 1622.2,179.9 1622.9,179.8 1623.6,179.8 1624.3,179.8 1625.0,179.8 1625.7,179.8 1626.4,179.8 1627.1,179.8 1627.8,179.9 1628.5,179.9 1629.2,180.0 1629.9,180.1 1630.6,180.3 1631.3,180.4 1632.0,180.5 1632.7,180.6 1633.5,180.8 1634.1,181.0 1634.8,181.1 1635.6,181.3 1636.3,181.5 1637.0,181.7 1637.7,181.9 1638.4,182.1 1639.1,182.3 1639.8,182.5 1640.5,182.7 1641.2,182.9 1641.9,183.1 1642.6,183.3 1643.3,183.5 1644.0,183.7" fill="none" stroke="#64748b" stroke-width="1.5" stroke-opacity="0.75"/>
  <polyline points="1403.2,94.2 1403.2,94.2 1403.3,94.2 1403.3,94.2 1403.4,94.2 1403.4,94.2 1403.4,94.2 1403.5,94.2 1403.5,94.2 1403.5,94.2 1403.6,94.2 1403.6,94.2 1403.6,94.2 1403.7,94.2 1403.7,94.2 1403.8,94.2 1403.8,94.2 1403.9,94.2 1403.9,94.2 1403.9,94.2 1404.0,94.2 1404.0,94.1 1404.0,94.1 1404.1,94.1 1404.1,94.1 1404.2,94.1 1404.2,94.1 1404.2,94.0 1404.3,94.0 1404.3,94.0 1404.3,94.0 1404.4,94.0 1404.4,94.0 1404.4,94.0 1404.5,94.0 1404.5,94.0 1404.6,94.0 1404.6,94.0 1404.7,94.0 1404.7,94.0 1404.7,94.0 1404.8,94.0 1404.8,94.0 1404.8,94.0 1404.9,94.0 1404.9,94.0 1404.9,94.0 1405.0,94.0 1405.0,94.0 1405.1,94.0 1405.1,94.0 1405.1,94.0 1405.2,94.0 1405.2,94.0 1405.2,94.0 1405.3,94.0 1405.3,94.0 1405.4,94.0 1405.4,94.0 1405.4,94.0 1405.5,94.0 1405.5,94.0 1405.6,94.0 1405.6,94.0 1405.6,94.0 1405.7,94.0 1405.7,94.0 1405.7,94.0 1405.8,94.0 1405.8,94.0 1405.9,94.0 1405.9,94.0 1405.9,94.0 1406.0,94.0 1406.0,94.0 1406.0,94.0 1406.1,94.0 1406.1,94.0 1406.2,94.0 1406.2,94.0 1406.2,94.0 1406.3,94.0 1406.3,94.0 1406.4,94.0 1406.4,94.0 1406.4,94.0 1406.5,94.0 1406.5,94.0 1406.5,94.0 1406.6,94.0 1406.6,94.0 1406.7,94.0 1406.7,94.0 1406.7,94.0 1406.8,94.0 1406.8,94.1 1406.8,94.1 1406.9,94.1 1406.9,94.1 1407.0,94.1 1407.0,94.1 1407.0,94.2 1407.1,94.2 1407.1,94.2 1407.2,94.2 1407.2,94.2 1407.2,94.2 1407.3,94.2 1407.3,94.2 1407.3,94.2 1407.4,94.2 1407.4,94.2 1407.5,94.2 1407.5,94.2 1407.5,94.2 1407.6,94.2 1407.6,94.2 1407.6,94.2 1407.7,94.2 1407.7,94.2 1407.7,94.2 1407.8,94.2 1407.8,94.2 1407.9,94.2 1407.9,94.3 1408.0,94.3 1408.0,94.3 1408.0,94.3 1408.1,94.3 1408.1,94.3 1408.1,94.3 1408.2,94.4 1408.2,94.4 1408.2,94.4 1408.3,94.4 1408.3,94.4 1408.4,94.4 1408.4,94.4 1408.4,94.4 1408.5,94.4 1408.5,94.4 1408.5,94.4 1408.6,94.5 1408.6,94.5 1408.7,94.5 1408.7,94.5 1408.8,94.5 1408.8,94.5 1408.8,94.5 1408.9,94.5 1408.9,94.5 1408.9,94.5 1409.0,94.5 1409.0,94.6 1409.0,94.6 1409.1,94.6 1409.1,94.6 1409.2,94.6 1409.2,94.6 1409.2,94.6 1409.3,94.7 1409.3,94.7 1409.3,94.7 1409.4,94.7 1409.4,94.7 1409.5,94.7 1409.5,94.8 1409.5,94.8 1409.6,94.8 1409.6,94.8 1409.7,94.8 1409.7,94.9 1409.7,94.9 1409.8,94.9 1409.8,94.9 1409.8,94.9 1409.9,94.9 1409.9,94.9 1410.0,94.9 1410.0,94.9 1410.0,94.9 1410.1,94.9 1410.1,94.9 1410.1,94.9 1410.2,94.9 1410.2,95.0 1410.3,95.0 1410.3,95.0 1410.3,95.1 1410.4,95.1 1410.4,95.1 1410.5,95.1 1410.5,95.2 1410.5,95.2 1410.6,95.2 1410.6,95.2 1410.6,95.2 1410.7,95.2 1410.7,95.3 1410.8,95.3 1410.8,95.3 1410.8,95.3 1410.9,95.3 1410.9,95.3 1410.9,95.3 1411.0,95.3 1411.0,95.4 1411.1,95.4 1411.1,95.4 1411.1,95.4 1411.2,95.4 1411.2,95.4 1411.3,95.4 1411.3,95.5 1411.3,95.5 1411.4,95.5 1411.4,95.5 1411.4,95.5 1411.5,95.5 1411.5,95.6 1411.6,95.6 1411.6,95.6 1411.6,95.6 1411.7,95.6 1411.7,95.7 1411.7,95.7 1411.8,95.7 1411.8,95.7 1411.8,95.7 1411.9,95.8 1411.9,95.8 1412.0,95.8 1412.0,95.8 1412.1,95.9 1412.1,95.9 1412.1,95.9 1412.2,95.9 1412.2,96.0 1412.2,96.0 1412.3,96.0 1412.3,96.0 1412.3,96.0 1412.4,96.1 1412.4,96.1 1412.5,96.1 1412.5,96.1 1412.5,96.1 1412.6,96.1 1412.6,96.2 1412.6,96.2 1412.7,96.2 1412.7,96.2 1412.8,96.2 1412.8,96.3 1412.9,96.3 1412.9,96.3 1412.9,96.3 1413.0,96.3 1413.0,96.3 1413.0,96.4 1413.1,96.4 1413.1,96.4 1413.1,96.4 1413.2,96.4 1413.2,96.5 1413.3,96.5 1413.3,96.5 1413.3,96.5 1413.4,96.5 1413.4,96.5 1413.4,96.6 1413.5,96.6 1413.5,96.6 1413.6,96.6 1413.6,96.7 1413.6,96.7 1413.7,96.7 1413.7,96.8 1413.8,96.8 1413.8,96.9 1413.8,96.9 1413.9,96.9 1413.9,96.9 1413.9,97.0 1414.0,97.0 1414.0,97.0 1414.1,97.0 1414.1,97.0 1414.1,97.0 1414.2,97.1 1414.2,97.1 1414.2,97.1 1414.3,97.1 1414.3,97.1 1414.4,97.2 1414.4,97.2 1414.4,97.2 1414.5,97.2 1414.5,97.2 1414.6,97.2 1414.6,97.3 1414.6,97.3 1414.7,97.3 1414.7,97.4 1414.7,97.4 1414.8,97.4 1414.8,97.4 1414.9,97.5 1414.9,97.5 1414.9,97.5 1415.0,97.5 1415.0,97.6 1415.0,97.6 1415.1,97.6 1415.1,97.7 1415.2,97.7 1415.2,97.7 1415.2,97.7 1415.3,97.8 1415.3,97.8 1415.4,97.8 1415.4,97.8 1415.4,97.8 1415.5,97.8 1415.5,97.9 1415.5,97.9 1415.6,97.9 1415.6,97.9 1415.7,98.0 1415.7,98.0 1415.7,98.0 1415.8,98.1 1415.8,98.1 1415.8,98.1 1415.9,98.2 1415.9,98.2 1415.9,98.2 1416.0,98.3 1416.0,98.3 1416.1,98.3 1416.1,98.4 1416.2,98.4 1416.2,98.4 1416.2,98.4 1416.3,98.5 1416.3,98.5 1416.3,98.5 1416.4,98.5 1416.4,98.6 1416.5,98.6 1416.5,98.6 1416.5,98.7 1416.6,98.7 1416.6,98.7 1416.6,98.7 1416.7,98.7 1416.7,98.8 1416.7,98.8 1416.8,98.8 1416.8,98.8 1416.9,98.8 1416.9,98.9 1417.0,98.9 1417.0,98.9 1417.0,98.9 1417.1,99.0 1417.1,99.0 1417.1,99.1 1417.2,99.1 1417.2,99.1 1417.2,99.2 1417.3,99.2 1417.3,99.2 1417.4,99.3 1417.4,99.3 1417.4,99.3 1417.5,99.4 1417.5,99.4 1417.5,99.4 1417.6,99.5 1417.6,99.5 1417.7,99.5 1417.7,99.6 1417.7,99.6 1417.8,99.6 1417.8,99.6 1417.9,99.6 1417.9,99.6 1417.9,99.7 1418.0,99.7 1418.0,99.7 1418.0,99.8 1418.1,99.8 1418.1,99.8 1418.2,99.9 1418.2,99.9 1418.2,99.9 1418.3,100.0 1418.3,100.0 1418.3,100.0 1418.4,100.1 1418.4,100.1 1418.5,100.1 1418.5,100.1 1418.5,100.2 1418.6,100.2 1418.6,100.2 1418.7,100.3 1418.7,100.3 1418.7,100.3 1418.8,100.3 1418.8,100.4 1418.8,100.4 1418.9,100.4 1418.9,100.4 1419.0,100.5 1419.0,100.5 1419.0,100.5 1419.1,100.6 1419.1,100.6 1419.1,100.6 1419.2,100.7 1419.2,100.7 1419.3,100.7 1419.3,100.8 1419.3,100.8 1419.4,100.8 1419.4,100.9 1419.5,100.9 1419.5,100.9 1419.5,100.9 1419.6,100.9 1419.6,100.9 1419.6,101.0 1419.7,101.0 1419.7,101.0 1419.8,101.1 1419.8,101.1 1419.8,101.1 1419.9,101.2 1419.9,101.2 1419.9,101.2 1420.0,101.3 1420.0,101.3 1420.0,101.3 1420.1,101.3 1420.1,101.3 1420.2,101.3 1420.2,101.3 1420.3,101.3 1420.3,101.3 1420.3,101.3 1420.4,101.3 1420.4,101.3 1420.4,101.3 1420.5,101.3 1420.5,101.3 1420.5,101.3 1420.6,101.3 1420.6,101.3 1420.7,101.3 1420.7,101.3 1420.7,101.3 1420.8,101.3 1420.8,101.3 1420.8,101.3 1420.9,101.3 1420.9,101.3 1421.0,101.2 1421.0,101.2 1421.1,101.2 1421.1,101.2 1421.1,101.2 1421.2,101.2 1421.2,101.2 1421.2,101.2 1421.3,101.2 1421.3,101.2 1421.3,101.2 1421.4,101.2 1421.4,101.2 1421.5,101.3 1421.5,101.3 1421.5,101.3 1421.6,101.3 1421.6,101.4 1421.6,101.4 1421.7,101.4 1421.7,101.4 1421.8,101.5 1421.8,101.5 1421.8,101.5 1421.9,101.6 1421.9,101.6 1422.0,101.6 1422.0,101.7 1422.0,101.7 1422.1,101.7 1422.1,101.7 1422.1,101.7 1422.2,101.7 1422.2,101.7 1422.3,101.7 1422.3,101.7 1422.3,101.7 1422.4,101.6 1422.4,101.6 1422.4,101.6 1422.5,101.6 1422.5,101.6 1422.6,101.6 1422.6,101.6 1422.6,101.6 1422.7,101.6 1422.7,101.5 1422.8,101.5 1422.8,101.5 1422.8,101.5 1422.9,101.5 1422.9,101.5 1422.9,101.5 1423.0,101.5 1423.0,101.5 1423.1,101.5 1423.1,101.5 1423.1,101.5 1423.2,101.5 1423.2,101.5 1423.2,101.5 1423.3,101.5 1423.3,101.5 1423.4,101.6 1423.4,101.6 1423.4,101.6 1423.5,101.6 1423.5,101.6 1423.6,101.6 1423.6,101.7 1423.6,101.7 1423.7,101.7 1423.7,101.8 1423.7,101.8 1423.8,101.8 1423.8,101.8 1423.9,101.9 1423.9,101.9 1423.9,101.9 1424.0,101.9 1424.0,102.0 1424.0,102.0 1424.1,102.0 1424.1,102.1 1424.1,102.0 1424.2,102.0 1424.2,102.0 1424.3,102.0 1424.3,102.0 1424.4,102.0 1424.4,101.9 1424.4,101.9 1424.5,101.9 1424.5,101.9 1424.5,101.9 1424.6,101.9 1424.6,101.9 1424.7,101.9 1424.7,101.9 1424.7,101.9 1424.8,102.0 1424.8,102.0 1424.8,101.9 1424.9,101.9 1424.9,101.9 1424.9,101.9 1425.0,101.9 1425.0,101.9 1425.1,101.9 1425.1,101.8 1425.2,101.8 1425.2,101.8 1425.2,101.9 1425.3,101.9 1425.3,101.9 1425.3,101.9 1425.4,102.0 1425.4,102.0 1425.4,102.0 1425.5,102.0 1425.5,102.0 1425.6,102.0 1425.6,102.0 1425.6,101.9 1425.7,101.9 1425.7,101.9 1425.7,101.9 1425.8,101.8 1425.8,101.8 1425.9,101.8 1425.9,101.8 1425.9,101.9 1426.0,101.9 1426.0,101.9 1426.1,101.9 1426.1,101.9 1426.1,102.0 1426.2,102.0 1426.2,102.1 1426.2,102.2 1426.3,102.3 1426.3,102.4 1426.4,102.5 1426.4,102.6 1426.4,102.7 1426.5,102.9 1426.5,103.0 1426.5,103.0 1426.6,103.0 1426.6,103.0 1426.7,103.0 1426.7,103.1 1426.7,103.1 1426.8,103.1 1426.8,103.1 1426.9,103.1 1426.9,103.1 1426.9,103.0 1427.0,102.9 1427.0,102.8 1427.0,102.8 1427.1,102.7 1427.1,102.6 1427.2,102.6 1427.2,102.5 1427.2,102.4 1427.3,102.4 1427.3,102.3 1427.3,102.2 1427.4,102.2 1427.4,102.1 1427.5,102.1 1427.5,102.0 1427.5,101.9 1427.6,102.0 1427.6,102.0 1427.7,102.0 1427.7,102.0 1427.7,102.0 1427.8,102.1 1427.8,102.1 1427.8,102.1 1427.9,102.1 1427.9,102.2 1428.0,102.2 1428.0,102.3 1428.0,102.3 1428.1,102.3 1428.1,102.4 1428.1,102.4 1428.2,102.5 1428.2,102.5 1428.2,102.6 1428.3,102.6 1428.3,102.7 1428.4,102.8 1428.4,102.8 1428.5,102.9 1428.5,102.9 1428.5,103.0 1428.6,103.1 1428.6,103.7 1428.6,104.3 1428.7,104.9 1428.7,105.5 1428.8,106.2 1428.8,106.8 1428.8,107.4 1428.9,108.0 1428.9,108.7 1428.9,108.7 1429.0,108.8 1429.0,108.8 1429.0,108.8 1429.1,108.8 1429.1,108.9 1429.2,108.9 1429.2,108.9 1429.3,108.9 1429.3,109.0 1429.3,109.0 1429.4,109.1 1429.4,109.1 1429.4,109.1 1429.5,109.2 1429.5,109.2 1429.5,109.2 1429.6,109.3 1429.6,109.3 1429.7,109.3 1429.7,109.4 1429.7,109.4 1429.8,109.4 1429.8,109.5 1429.8,109.5 1429.9,109.6 1429.9,109.6 1430.0,109.6 1430.0,109.6 1430.0,109.6 1430.1,109.7 1430.1,109.7 1430.2,109.7 1430.2,109.7 1430.2,109.7 1430.3,109.8 1430.3,109.8 1430.3,109.8 1430.4,109.9 1430.4,109.9 1430.5,109.9 1430.5,110.0 1430.5,110.0" fill="none" stroke="#ea580c" stroke-width="3.0"/>
  <text x="1149" y="89" font-size="11" fill="#334155" text-anchor="end">1550</text>
  <text x="1149" y="226" font-size="11" fill="#334155" text-anchor="end">0</text>
  <text x="1152" y="240" font-size="11" fill="#334155">27 Aug</text>
  <text x="1644" y="240" font-size="11" fill="#334155" text-anchor="end">05 Sep</text>
  <text x="1152" y="258" font-size="13" font-weight="700" fill="#0f172a">Selected 12 h window: 31 Aug 2024 14:17 to 01 Sep 2024 02:17</text>
  <text x="1152" y="276" font-size="13" fill="#ea580c">Budameru peak 1550 m3/s; selected-window mean 1490 m3/s</text>
  <text x="1152" y="300" font-size="12" fill="#334155">PRAKASAM BARRAGE: 23.06 m normal stage</text><text x="1152" y="318" font-size="12" fill="#334155">Krishna River: 18.18 m normal stage</text><text x="1152" y="336" font-size="12" fill="#334155">Krishna upstream boundary: 21.17 m normal stage</text><text x="1152" y="354" font-size="12" fill="#334155">Budameru canal: 20.65 m normal stage</text>
</g>
</svg>
