<svg xmlns="http://www.w3.org/2000/svg" width="1700" height="1916" viewBox="0 0 1700 1916" role="img" aria-label="Vijayawada waterway FDir arrows">
  <defs>
    <marker id="head-river" markerUnits="userSpaceOnUse" viewBox="0 0 44 28" refX="40" refY="14" markerWidth="44" markerHeight="28" orient="auto">
      <path d="M2 3 L40 14 L2 25 L12 14 Z" fill="#0369a1" stroke="#ffffff" stroke-width="3.0" stroke-linejoin="round"/>
      <path d="M2 3 L40 14 L2 25 L12 14 Z" fill="none" stroke="#0f172a" stroke-width="1.15" stroke-linejoin="round" opacity="0.42"/>
    </marker>
    <marker id="head-reservoir" markerUnits="userSpaceOnUse" viewBox="0 0 44 28" refX="40" refY="14" markerWidth="44" markerHeight="28" orient="auto">
      <path d="M2 3 L40 14 L2 25 L12 14 Z" fill="#0284c7" stroke="#ffffff" stroke-width="3.0" stroke-linejoin="round"/>
      <path d="M2 3 L40 14 L2 25 L12 14 Z" fill="none" stroke="#0f172a" stroke-width="1.15" stroke-linejoin="round" opacity="0.42"/>
    </marker>
    <marker id="head-budameru" markerUnits="userSpaceOnUse" viewBox="0 0 44 28" refX="40" refY="14" markerWidth="44" markerHeight="28" orient="auto">
      <path d="M2 3 L40 14 L2 25 L12 14 Z" fill="#0f766e" stroke="#ffffff" stroke-width="3.0" stroke-linejoin="round"/>
      <path d="M2 3 L40 14 L2 25 L12 14 Z" fill="none" stroke="#0f172a" stroke-width="1.15" stroke-linejoin="round" opacity="0.42"/>
    </marker>
    <marker id="head-canal" markerUnits="userSpaceOnUse" viewBox="0 0 44 28" refX="40" refY="14" markerWidth="44" markerHeight="28" orient="auto">
      <path d="M2 3 L40 14 L2 25 L12 14 Z" fill="#b45309" stroke="#ffffff" stroke-width="3.0" stroke-linejoin="round"/>
      <path d="M2 3 L40 14 L2 25 L12 14 Z" fill="none" stroke="#0f172a" stroke-width="1.15" stroke-linejoin="round" opacity="0.42"/>
    </marker>
    <marker id="head-major" markerUnits="userSpaceOnUse" viewBox="0 0 44 28" refX="40" refY="14" markerWidth="44" markerHeight="28" orient="auto">
      <path d="M2 3 L40 14 L2 25 L12 14 Z" fill="#92400e" stroke="#ffffff" stroke-width="3.0" stroke-linejoin="round"/>
      <path d="M2 3 L40 14 L2 25 L12 14 Z" fill="none" stroke="#0f172a" stroke-width="1.15" stroke-linejoin="round" opacity="0.42"/>
    </marker>
    <style>
      .fdir-halo { fill:none; stroke:#ffffff; stroke-width:16; stroke-linecap:round; stroke-linejoin:round; opacity:0.98; }
      .fdir-shadow { fill:none; stroke:#020617; stroke-width:10; stroke-linecap:round; stroke-linejoin:round; opacity:0.28; }
      .fdir-shaft { fill:none; stroke-width:7.8; stroke-linecap:round; stroke-linejoin:round; opacity:0.99; }
      .river .fdir-shaft, .reservoir .fdir-shaft { stroke-width:9.2; }
    </style>
  </defs>
  <desc>Waterway FDir arrows generated from path-following river, canal and Budameru geometry.</desc>
  <rect width="1700" height="1916" fill="none"/>
  <g id="fdir-flow-arrows" data-feature-count="46">
    <g class="fdir-arrow budameru">
      <title>WAT-011: Budameru Canal. Direction: reviewed west-to-east / downstream display direction through Vijayawada.</title>
      <path class="fdir-halo" d="M 623.8 643.8 L 647.9 671.6 L 704.2 751.2"/>
      <path class="fdir-shadow" d="M 623.8 643.8 L 647.9 671.6 L 704.2 751.2"/>
      <path class="fdir-shaft" d="M 623.8 643.8 L 647.9 671.6 L 704.2 751.2" stroke="#0f766e" marker-end="url(#head-budameru)"/>
    </g>    <g class="fdir-arrow budameru">
      <title>WAT-012: Budameru Canal. Direction: reviewed west-to-east / downstream display direction through Vijayawada.</title>
      <path class="fdir-halo" d="M 721.5 775.8 L 793.5 877.6 L 800.7 883.9"/>
      <path class="fdir-shadow" d="M 721.5 775.8 L 793.5 877.6 L 800.7 883.9"/>
      <path class="fdir-shaft" d="M 721.5 775.8 L 793.5 877.6 L 800.7 883.9" stroke="#0f766e" marker-end="url(#head-budameru)"/>
    </g>    <g class="fdir-arrow budameru">
      <title>WAT-013: Budameru Canal. Direction: reviewed west-to-east / downstream display direction through Vijayawada.</title>
      <path class="fdir-halo" d="M 823.4 903.7 L 887.3 959.4 L 934.3 975.1"/>
      <path class="fdir-shadow" d="M 823.4 903.7 L 887.3 959.4 L 934.3 975.1"/>
      <path class="fdir-shaft" d="M 823.4 903.7 L 887.3 959.4 L 934.3 975.1" stroke="#0f766e" marker-end="url(#head-budameru)"/>
    </g>    <g class="fdir-arrow budameru">
      <title>WAT-014: Budameru Canal. Direction: reviewed west-to-east / downstream display direction through Vijayawada.</title>
      <path class="fdir-halo" d="M 962.8 984.7 L 984.3 991.9 L 1095.4 1003.0"/>
      <path class="fdir-shadow" d="M 962.8 984.7 L 984.3 991.9 L 1095.4 1003.0"/>
      <path class="fdir-shaft" d="M 962.8 984.7 L 984.3 991.9 L 1095.4 1003.0" stroke="#0f766e" marker-end="url(#head-budameru)"/>
    </g>    <g class="fdir-arrow budameru">
      <title>WAT-015: Budameru Canal. Direction: reviewed west-to-east / downstream display direction through Vijayawada.</title>
      <path class="fdir-halo" d="M 1125.3 1006.0 L 1225.6 1016.0 L 1258.1 1024.2"/>
      <path class="fdir-shadow" d="M 1125.3 1006.0 L 1225.6 1016.0 L 1258.1 1024.2"/>
      <path class="fdir-shaft" d="M 1125.3 1006.0 L 1225.6 1016.0 L 1258.1 1024.2" stroke="#0f766e" marker-end="url(#head-budameru)"/>
    </g>    <g class="fdir-arrow budameru">
      <title>BUD-031: Budameru Canal. Direction: west / northwest to east / southeast along mapped Budameru waterway.</title>
      <path class="fdir-halo" d="M 702.8 683.4 L 705.1 684.2 L 710.3 685.7 L 713.6 689.1 L 712.7 691.7 L 708.7 694.1 L 708.2 696.9 L 709.2 700.6 L 709.8 706.4 L 712.2 710.9 L 713.8 716.1 L 715.0 721.1 L 718.1 724.4 L 723.6 724.4 L 735.8 722.5 L 739.6 722.1 L 743.1 724.2 L 743.0 727.3 L 740.9 732.1 L 740.9 736.3 L 743.1 738.0 L 747.0 737.6 L 751.3 738.1 L 753.6 742.0 L 752.4 744.6 L 750.3 749.2"/>
      <path class="fdir-shadow" d="M 702.8 683.4 L 705.1 684.2 L 710.3 685.7 L 713.6 689.1 L 712.7 691.7 L 708.7 694.1 L 708.2 696.9 L 709.2 700.6 L 709.8 706.4 L 712.2 710.9 L 713.8 716.1 L 715.0 721.1 L 718.1 724.4 L 723.6 724.4 L 735.8 722.5 L 739.6 722.1 L 743.1 724.2 L 743.0 727.3 L 740.9 732.1 L 740.9 736.3 L 743.1 738.0 L 747.0 737.6 L 751.3 738.1 L 753.6 742.0 L 752.4 744.6 L 750.3 749.2"/>
      <path class="fdir-shaft" d="M 702.8 683.4 L 705.1 684.2 L 710.3 685.7 L 713.6 689.1 L 712.7 691.7 L 708.7 694.1 L 708.2 696.9 L 709.2 700.6 L 709.8 706.4 L 712.2 710.9 L 713.8 716.1 L 715.0 721.1 L 718.1 724.4 L 723.6 724.4 L 735.8 722.5 L 739.6 722.1 L 743.1 724.2 L 743.0 727.3 L 740.9 732.1 L 740.9 736.3 L 743.1 738.0 L 747.0 737.6 L 751.3 738.1 L 753.6 742.0 L 752.4 744.6 L 750.3 749.2" stroke="#0f766e" marker-end="url(#head-budameru)"/>
    </g>    <g class="fdir-arrow budameru">
      <title>BUD-032: Budameru Canal. Direction: west / northwest to east / southeast along mapped Budameru waterway.</title>
      <path class="fdir-halo" d="M 739.4 769.9 L 738.2 772.7 L 738.0 776.3 L 742.3 782.0 L 743.1 786.2 L 741.3 789.8 L 737.0 792.3 L 731.7 793.1 L 724.4 792.6 L 719.0 793.2 L 714.1 796.6 L 711.9 802.6 L 713.8 809.4 L 719.1 812.5 L 729.4 810.7 L 737.7 809.9 L 742.2 814.1 L 741.2 818.3 L 738.6 822.2 L 739.7 828.1 L 743.6 829.0"/>
      <path class="fdir-shadow" d="M 739.4 769.9 L 738.2 772.7 L 738.0 776.3 L 742.3 782.0 L 743.1 786.2 L 741.3 789.8 L 737.0 792.3 L 731.7 793.1 L 724.4 792.6 L 719.0 793.2 L 714.1 796.6 L 711.9 802.6 L 713.8 809.4 L 719.1 812.5 L 729.4 810.7 L 737.7 809.9 L 742.2 814.1 L 741.2 818.3 L 738.6 822.2 L 739.7 828.1 L 743.6 829.0"/>
      <path class="fdir-shaft" d="M 739.4 769.9 L 738.2 772.7 L 738.0 776.3 L 742.3 782.0 L 743.1 786.2 L 741.3 789.8 L 737.0 792.3 L 731.7 793.1 L 724.4 792.6 L 719.0 793.2 L 714.1 796.6 L 711.9 802.6 L 713.8 809.4 L 719.1 812.5 L 729.4 810.7 L 737.7 809.9 L 742.2 814.1 L 741.2 818.3 L 738.6 822.2 L 739.7 828.1 L 743.6 829.0" stroke="#0f766e" marker-end="url(#head-budameru)"/>
    </g>    <g class="fdir-arrow budameru">
      <title>BUD-033: Budameru Canal. Direction: west / northwest to east / southeast along mapped Budameru waterway.</title>
      <path class="fdir-halo" d="M 757.6 845.2 L 761.4 844.0 L 764.1 841.0 L 769.2 840.5 L 775.5 845.3 L 785.6 853.8 L 794.0 861.6 L 796.8 867.6 L 793.9 873.1 L 784.8 876.9 L 783.0 883.0 L 785.8 886.5 L 791.6 888.3 L 800.0 891.6 L 802.8 897.2 L 805.6 903.8 L 811.5 907.4"/>
      <path class="fdir-shadow" d="M 757.6 845.2 L 761.4 844.0 L 764.1 841.0 L 769.2 840.5 L 775.5 845.3 L 785.6 853.8 L 794.0 861.6 L 796.8 867.6 L 793.9 873.1 L 784.8 876.9 L 783.0 883.0 L 785.8 886.5 L 791.6 888.3 L 800.0 891.6 L 802.8 897.2 L 805.6 903.8 L 811.5 907.4"/>
      <path class="fdir-shaft" d="M 757.6 845.2 L 761.4 844.0 L 764.1 841.0 L 769.2 840.5 L 775.5 845.3 L 785.6 853.8 L 794.0 861.6 L 796.8 867.6 L 793.9 873.1 L 784.8 876.9 L 783.0 883.0 L 785.8 886.5 L 791.6 888.3 L 800.0 891.6 L 802.8 897.2 L 805.6 903.8 L 811.5 907.4" stroke="#0f766e" marker-end="url(#head-budameru)"/>
    </g>    <g class="fdir-arrow budameru">
      <title>BUD-034: Budameru Canal. Direction: west / northwest to east / southeast along mapped Budameru waterway.</title>
      <path class="fdir-halo" d="M 818.0 929.2 L 820.9 940.2 L 826.0 948.9 L 833.1 959.8 L 846.6 977.4 L 857.3 988.6 L 866.5 998.8 L 876.1 1000.7 L 889.3 997.3 L 894.1 995.0"/>
      <path class="fdir-shadow" d="M 818.0 929.2 L 820.9 940.2 L 826.0 948.9 L 833.1 959.8 L 846.6 977.4 L 857.3 988.6 L 866.5 998.8 L 876.1 1000.7 L 889.3 997.3 L 894.1 995.0"/>
      <path class="fdir-shaft" d="M 818.0 929.2 L 820.9 940.2 L 826.0 948.9 L 833.1 959.8 L 846.6 977.4 L 857.3 988.6 L 866.5 998.8 L 876.1 1000.7 L 889.3 997.3 L 894.1 995.0" stroke="#0f766e" marker-end="url(#head-budameru)"/>
    </g>    <g class="fdir-arrow budameru">
      <title>BUD-035: Budameru Canal. Direction: west / northwest to east / southeast along mapped Budameru waterway.</title>
      <path class="fdir-halo" d="M 916.1 986.1 L 925.3 982.9 L 953.8 973.1 L 974.6 967.0 L 989.9 961.4 L 1002.0 959.0 L 1016.4 956.9 L 1026.1 955.0"/>
      <path class="fdir-shadow" d="M 916.1 986.1 L 925.3 982.9 L 953.8 973.1 L 974.6 967.0 L 989.9 961.4 L 1002.0 959.0 L 1016.4 956.9 L 1026.1 955.0"/>
      <path class="fdir-shaft" d="M 916.1 986.1 L 925.3 982.9 L 953.8 973.1 L 974.6 967.0 L 989.9 961.4 L 1002.0 959.0 L 1016.4 956.9 L 1026.1 955.0" stroke="#0f766e" marker-end="url(#head-budameru)"/>
    </g>    <g class="fdir-arrow budameru">
      <title>BUD-036: Budameru Canal. Direction: west / northwest to east / southeast along mapped Budameru waterway.</title>
      <path class="fdir-halo" d="M 1049.6 956.8 L 1053.4 957.8 L 1057.8 961.3 L 1070.6 968.7 L 1077.2 973.1 L 1088.6 975.6 L 1107.2 978.7 L 1130.2 983.8 L 1141.8 987.4 L 1154.8 989.3 L 1157.5 990.6"/>
      <path class="fdir-shadow" d="M 1049.6 956.8 L 1053.4 957.8 L 1057.8 961.3 L 1070.6 968.7 L 1077.2 973.1 L 1088.6 975.6 L 1107.2 978.7 L 1130.2 983.8 L 1141.8 987.4 L 1154.8 989.3 L 1157.5 990.6"/>
      <path class="fdir-shaft" d="M 1049.6 956.8 L 1053.4 957.8 L 1057.8 961.3 L 1070.6 968.7 L 1077.2 973.1 L 1088.6 975.6 L 1107.2 978.7 L 1130.2 983.8 L 1141.8 987.4 L 1154.8 989.3 L 1157.5 990.6" stroke="#0f766e" marker-end="url(#head-budameru)"/>
    </g>    <g class="fdir-arrow budameru">
      <title>BUD-037: Budameru Canal. Direction: west / northwest to east / southeast along mapped Budameru waterway.</title>
      <path class="fdir-halo" d="M 1179.3 1000.0 L 1182.2 1001.1 L 1202.1 1010.4 L 1237.6 1023.7 L 1264.8 1034.2 L 1285.8 1042.3"/>
      <path class="fdir-shadow" d="M 1179.3 1000.0 L 1182.2 1001.1 L 1202.1 1010.4 L 1237.6 1023.7 L 1264.8 1034.2 L 1285.8 1042.3"/>
      <path class="fdir-shaft" d="M 1179.3 1000.0 L 1182.2 1001.1 L 1202.1 1010.4 L 1237.6 1023.7 L 1264.8 1034.2 L 1285.8 1042.3" stroke="#0f766e" marker-end="url(#head-budameru)"/>
    </g>    <g class="fdir-arrow budameru">
      <title>BUD-038: Budameru Canal. Direction: west / northwest to east / southeast along mapped Budameru waterway.</title>
      <path class="fdir-halo" d="M 1308.2 1050.4 L 1312.0 1051.8 L 1327.4 1057.8 L 1343.4 1060.4 L 1353.8 1061.5 L 1368.5 1061.6 L 1387.5 1059.7 L 1410.6 1057.0 L 1420.8 1055.5"/>
      <path class="fdir-shadow" d="M 1308.2 1050.4 L 1312.0 1051.8 L 1327.4 1057.8 L 1343.4 1060.4 L 1353.8 1061.5 L 1368.5 1061.6 L 1387.5 1059.7 L 1410.6 1057.0 L 1420.8 1055.5"/>
      <path class="fdir-shaft" d="M 1308.2 1050.4 L 1312.0 1051.8 L 1327.4 1057.8 L 1343.4 1060.4 L 1353.8 1061.5 L 1368.5 1061.6 L 1387.5 1059.7 L 1410.6 1057.0 L 1420.8 1055.5" stroke="#0f766e" marker-end="url(#head-budameru)"/>
    </g>    <g class="fdir-arrow budameru">
      <title>BUD-039: Budameru Canal. Direction: west / northwest to east / southeast along mapped Budameru waterway.</title>
      <path class="fdir-halo" d="M 1444.0 1050.4 L 1454.7 1047.9 L 1468.7 1042.9 L 1480.0 1041.9 L 1489.5 1040.4 L 1502.3 1035.7 L 1508.9 1033.3 L 1516.5 1030.7 L 1523.9 1029.9 L 1536.0 1032.3 L 1549.1 1032.8 L 1555.1 1031.2"/>
      <path class="fdir-shadow" d="M 1444.0 1050.4 L 1454.7 1047.9 L 1468.7 1042.9 L 1480.0 1041.9 L 1489.5 1040.4 L 1502.3 1035.7 L 1508.9 1033.3 L 1516.5 1030.7 L 1523.9 1029.9 L 1536.0 1032.3 L 1549.1 1032.8 L 1555.1 1031.2"/>
      <path class="fdir-shaft" d="M 1444.0 1050.4 L 1454.7 1047.9 L 1468.7 1042.9 L 1480.0 1041.9 L 1489.5 1040.4 L 1502.3 1035.7 L 1508.9 1033.3 L 1516.5 1030.7 L 1523.9 1029.9 L 1536.0 1032.3 L 1549.1 1032.8 L 1555.1 1031.2" stroke="#0f766e" marker-end="url(#head-budameru)"/>
    </g>    <g class="fdir-arrow budameru">
      <title>BUD-040: Budameru Canal. Direction: west / northwest to east / southeast along mapped Budameru waterway.</title>
      <path class="fdir-halo" d="M 1578.2 1025.8 L 1581.0 1025.4 L 1593.6 1027.2 L 1604.9 1027.9 L 1613.6 1027.5 L 1627.6 1025.3 L 1641.2 1022.8 L 1652.6 1019.6 L 1659.7 1018.6 L 1668.2 1017.9 L 1680.6 1016.1 L 1684.1 1015.6 L 1687.3 1015.1 L 1691.4 1014.1"/>
      <path class="fdir-shadow" d="M 1578.2 1025.8 L 1581.0 1025.4 L 1593.6 1027.2 L 1604.9 1027.9 L 1613.6 1027.5 L 1627.6 1025.3 L 1641.2 1022.8 L 1652.6 1019.6 L 1659.7 1018.6 L 1668.2 1017.9 L 1680.6 1016.1 L 1684.1 1015.6 L 1687.3 1015.1 L 1691.4 1014.1"/>
      <path class="fdir-shaft" d="M 1578.2 1025.8 L 1581.0 1025.4 L 1593.6 1027.2 L 1604.9 1027.9 L 1613.6 1027.5 L 1627.6 1025.3 L 1641.2 1022.8 L 1652.6 1019.6 L 1659.7 1018.6 L 1668.2 1017.9 L 1680.6 1016.1 L 1684.1 1015.6 L 1687.3 1015.1 L 1691.4 1014.1" stroke="#0f766e" marker-end="url(#head-budameru)"/>
    </g>    <g class="fdir-arrow budameru">
      <title>BUD-041: Budameru River. Direction: west / northwest to east / southeast along mapped Budameru waterway.</title>
      <path class="fdir-halo" d="M -0.0 242.9 L 3.0 243.9 L 8.2 244.3 L 19.7 246.0 L 27.1 248.8 L 31.4 251.7 L 33.3 258.0 L 36.0 263.2 L 40.6 270.0 L 44.3 272.4 L 46.9 282.9 L 49.8 287.8 L 55.4 293.6 L 60.1 294.1"/>
      <path class="fdir-shadow" d="M -0.0 242.9 L 3.0 243.9 L 8.2 244.3 L 19.7 246.0 L 27.1 248.8 L 31.4 251.7 L 33.3 258.0 L 36.0 263.2 L 40.6 270.0 L 44.3 272.4 L 46.9 282.9 L 49.8 287.8 L 55.4 293.6 L 60.1 294.1"/>
      <path class="fdir-shaft" d="M -0.0 242.9 L 3.0 243.9 L 8.2 244.3 L 19.7 246.0 L 27.1 248.8 L 31.4 251.7 L 33.3 258.0 L 36.0 263.2 L 40.6 270.0 L 44.3 272.4 L 46.9 282.9 L 49.8 287.8 L 55.4 293.6 L 60.1 294.1" stroke="#0f766e" marker-end="url(#head-budameru)"/>
    </g>    <g class="fdir-arrow budameru">
      <title>BUD-042: Budameru River. Direction: west / northwest to east / southeast along mapped Budameru waterway.</title>
      <path class="fdir-halo" d="M 74.7 302.4 L 82.4 310.0 L 95.1 318.8 L 103.5 325.9 L 109.9 336.4 L 120.9 346.7 L 128.8 364.1"/>
      <path class="fdir-shadow" d="M 74.7 302.4 L 82.4 310.0 L 95.1 318.8 L 103.5 325.9 L 109.9 336.4 L 120.9 346.7 L 128.8 364.1"/>
      <path class="fdir-shaft" d="M 74.7 302.4 L 82.4 310.0 L 95.1 318.8 L 103.5 325.9 L 109.9 336.4 L 120.9 346.7 L 128.8 364.1" stroke="#0f766e" marker-end="url(#head-budameru)"/>
    </g>    <g class="fdir-arrow budameru">
      <title>BUD-043: Budameru River. Direction: west / northwest to east / southeast along mapped Budameru waterway.</title>
      <path class="fdir-halo" d="M 148.1 399.6 L 148.5 400.1 L 152.9 406.5 L 156.7 411.1 L 156.5 419.2 L 160.3 425.4 L 164.9 434.8 L 171.9 446.3 L 180.8 457.2 L 184.4 465.6 L 186.9 472.1 L 190.2 474.8 L 194.1 478.9 L 198.1 489.6 L 200.3 496.2 L 201.4 498.4"/>
      <path class="fdir-shadow" d="M 148.1 399.6 L 148.5 400.1 L 152.9 406.5 L 156.7 411.1 L 156.5 419.2 L 160.3 425.4 L 164.9 434.8 L 171.9 446.3 L 180.8 457.2 L 184.4 465.6 L 186.9 472.1 L 190.2 474.8 L 194.1 478.9 L 198.1 489.6 L 200.3 496.2 L 201.4 498.4"/>
      <path class="fdir-shaft" d="M 148.1 399.6 L 148.5 400.1 L 152.9 406.5 L 156.7 411.1 L 156.5 419.2 L 160.3 425.4 L 164.9 434.8 L 171.9 446.3 L 180.8 457.2 L 184.4 465.6 L 186.9 472.1 L 190.2 474.8 L 194.1 478.9 L 198.1 489.6 L 200.3 496.2 L 201.4 498.4" stroke="#0f766e" marker-end="url(#head-budameru)"/>
    </g>    <g class="fdir-arrow budameru">
      <title>BUD-044: Budameru River. Direction: west / northwest to east / southeast along mapped Budameru waterway.</title>
      <path class="fdir-halo" d="M 220.0 518.8 L 229.8 526.1 L 241.1 538.5 L 252.0 544.7 L 271.8 557.2 L 275.7 560.1 L 278.9 564.6 L 284.0 573.0 L 290.8 577.4 L 296.8 581.4 L 309.5 587.7"/>
      <path class="fdir-shadow" d="M 220.0 518.8 L 229.8 526.1 L 241.1 538.5 L 252.0 544.7 L 271.8 557.2 L 275.7 560.1 L 278.9 564.6 L 284.0 573.0 L 290.8 577.4 L 296.8 581.4 L 309.5 587.7"/>
      <path class="fdir-shaft" d="M 220.0 518.8 L 229.8 526.1 L 241.1 538.5 L 252.0 544.7 L 271.8 557.2 L 275.7 560.1 L 278.9 564.6 L 284.0 573.0 L 290.8 577.4 L 296.8 581.4 L 309.5 587.7" stroke="#0f766e" marker-end="url(#head-budameru)"/>
    </g>    <g class="fdir-arrow budameru">
      <title>BUD-045: Budameru River. Direction: west / northwest to east / southeast along mapped Budameru waterway.</title>
      <path class="fdir-halo" d="M 336.9 590.4 L 339.4 590.9 L 343.8 596.8 L 356.0 609.2 L 365.2 619.2 L 402.5 640.6 L 428.2 657.4"/>
      <path class="fdir-shadow" d="M 336.9 590.4 L 339.4 590.9 L 343.8 596.8 L 356.0 609.2 L 365.2 619.2 L 402.5 640.6 L 428.2 657.4"/>
      <path class="fdir-shaft" d="M 336.9 590.4 L 339.4 590.9 L 343.8 596.8 L 356.0 609.2 L 365.2 619.2 L 402.5 640.6 L 428.2 657.4" stroke="#0f766e" marker-end="url(#head-budameru)"/>
    </g>    <g class="fdir-arrow budameru">
      <title>BUD-046: Budameru River. Direction: west / northwest to east / southeast along mapped Budameru waterway.</title>
      <path class="fdir-halo" d="M 451.7 672.8 L 462.2 679.7 L 466.3 682.2 L 470.2 684.4 L 474.3 681.0 L 476.9 680.8 L 480.9 678.2 L 488.2 671.0 L 492.9 666.1 L 495.9 659.5 L 495.7 652.3 L 497.9 647.6 L 499.0 644.8 L 499.3 641.7 L 495.2 640.4 L 491.2 639.6 L 488.2 637.8 L 488.3 635.5 L 490.1 629.7 L 491.2 626.2 L 491.5 622.0 L 490.9 618.9 L 493.0 615.4 L 493.9 613.6"/>
      <path class="fdir-shadow" d="M 451.7 672.8 L 462.2 679.7 L 466.3 682.2 L 470.2 684.4 L 474.3 681.0 L 476.9 680.8 L 480.9 678.2 L 488.2 671.0 L 492.9 666.1 L 495.9 659.5 L 495.7 652.3 L 497.9 647.6 L 499.0 644.8 L 499.3 641.7 L 495.2 640.4 L 491.2 639.6 L 488.2 637.8 L 488.3 635.5 L 490.1 629.7 L 491.2 626.2 L 491.5 622.0 L 490.9 618.9 L 493.0 615.4 L 493.9 613.6"/>
      <path class="fdir-shaft" d="M 451.7 672.8 L 462.2 679.7 L 466.3 682.2 L 470.2 684.4 L 474.3 681.0 L 476.9 680.8 L 480.9 678.2 L 488.2 671.0 L 492.9 666.1 L 495.9 659.5 L 495.7 652.3 L 497.9 647.6 L 499.0 644.8 L 499.3 641.7 L 495.2 640.4 L 491.2 639.6 L 488.2 637.8 L 488.3 635.5 L 490.1 629.7 L 491.2 626.2 L 491.5 622.0 L 490.9 618.9 L 493.0 615.4 L 493.9 613.6" stroke="#0f766e" marker-end="url(#head-budameru)"/>
    </g>    <g class="fdir-arrow major">
      <title>CAN-016: Eluru Canal. Direction: away from nearest Krishna/reservoir endpoint along mapped canal line.</title>
      <path class="fdir-halo" d="M 605.1 1225.1 L 622.8 1210.4 L 644.1 1194.7 L 700.7 1145.6"/>
      <path class="fdir-shadow" d="M 605.1 1225.1 L 622.8 1210.4 L 644.1 1194.7 L 700.7 1145.6"/>
      <path class="fdir-shaft" d="M 605.1 1225.1 L 622.8 1210.4 L 644.1 1194.7 L 700.7 1145.6" stroke="#92400e" marker-end="url(#head-major)"/>
    </g>    <g class="fdir-arrow major">
      <title>CAN-017: Eluru Canal. Direction: away from nearest Krishna/reservoir endpoint along mapped canal line.</title>
      <path class="fdir-halo" d="M 725.7 1123.9 L 804.9 1055.2 L 821.0 1044.0"/>
      <path class="fdir-shadow" d="M 725.7 1123.9 L 804.9 1055.2 L 821.0 1044.0"/>
      <path class="fdir-shaft" d="M 725.7 1123.9 L 804.9 1055.2 L 821.0 1044.0" stroke="#92400e" marker-end="url(#head-major)"/>
    </g>    <g class="fdir-arrow major">
      <title>CAN-018: Eluru Canal. Direction: away from nearest Krishna/reservoir endpoint along mapped canal line.</title>
      <path class="fdir-halo" d="M 849.2 1026.8 L 874.0 1013.5 L 964.9 981.5"/>
      <path class="fdir-shadow" d="M 849.2 1026.8 L 874.0 1013.5 L 964.9 981.5"/>
      <path class="fdir-shaft" d="M 849.2 1026.8 L 874.0 1013.5 L 964.9 981.5" stroke="#92400e" marker-end="url(#head-major)"/>
    </g>    <g class="fdir-arrow major">
      <title>CAN-019: Eluru Canal. Direction: away from nearest Krishna/reservoir endpoint along mapped canal line.</title>
      <path class="fdir-halo" d="M 996.5 972.7 L 1030.1 972.1 L 1053.9 976.6 L 1117.3 997.0"/>
      <path class="fdir-shadow" d="M 996.5 972.7 L 1030.1 972.1 L 1053.9 976.6 L 1117.3 997.0"/>
      <path class="fdir-shaft" d="M 996.5 972.7 L 1030.1 972.1 L 1053.9 976.6 L 1117.3 997.0" stroke="#92400e" marker-end="url(#head-major)"/>
    </g>    <g class="fdir-arrow major">
      <title>CAN-020: Eluru Canal. Direction: away from nearest Krishna/reservoir endpoint along mapped canal line.</title>
      <path class="fdir-halo" d="M 1148.8 1007.2 L 1214.7 1028.4 L 1266.7 1047.2"/>
      <path class="fdir-shadow" d="M 1148.8 1007.2 L 1214.7 1028.4 L 1266.7 1047.2"/>
      <path class="fdir-shaft" d="M 1148.8 1007.2 L 1214.7 1028.4 L 1266.7 1047.2" stroke="#92400e" marker-end="url(#head-major)"/>
    </g>    <g class="fdir-arrow major">
      <title>CAN-021: Eluru Canal. Direction: away from nearest Krishna/reservoir endpoint along mapped canal line.</title>
      <path class="fdir-halo" d="M 1297.8 1058.4 L 1313.3 1064.1 L 1330.1 1070.4 L 1332.4 1071.2 L 1346.9 1073.9 L 1391.3 1073.2 L 1419.1 1067.5"/>
      <path class="fdir-shadow" d="M 1297.8 1058.4 L 1313.3 1064.1 L 1330.1 1070.4 L 1332.4 1071.2 L 1346.9 1073.9 L 1391.3 1073.2 L 1419.1 1067.5"/>
      <path class="fdir-shaft" d="M 1297.8 1058.4 L 1313.3 1064.1 L 1330.1 1070.4 L 1332.4 1071.2 L 1346.9 1073.9 L 1391.3 1073.2 L 1419.1 1067.5" stroke="#92400e" marker-end="url(#head-major)"/>
    </g>    <g class="fdir-arrow major">
      <title>CAN-022: Eluru Canal. Direction: away from nearest Krishna/reservoir endpoint along mapped canal line.</title>
      <path class="fdir-halo" d="M 1451.5 1060.8 L 1531.0 1044.5 L 1557.3 1042.2 L 1574.2 1041.3"/>
      <path class="fdir-shadow" d="M 1451.5 1060.8 L 1531.0 1044.5 L 1557.3 1042.2 L 1574.2 1041.3"/>
      <path class="fdir-shaft" d="M 1451.5 1060.8 L 1531.0 1044.5 L 1557.3 1042.2 L 1574.2 1041.3" stroke="#92400e" marker-end="url(#head-major)"/>
    </g>    <g class="fdir-arrow major">
      <title>CAN-023: Krishna Eastern Main Canal. Direction: away from nearest Krishna/reservoir endpoint along mapped canal line.</title>
      <path class="fdir-halo" d="M 292.3 1366.2 L 331.3 1312.7 L 339.6 1307.7 L 346.3 1307.1 L 361.4 1306.3"/>
      <path class="fdir-shadow" d="M 292.3 1366.2 L 331.3 1312.7 L 339.6 1307.7 L 346.3 1307.1 L 361.4 1306.3"/>
      <path class="fdir-shaft" d="M 292.3 1366.2 L 331.3 1312.7 L 339.6 1307.7 L 346.3 1307.1 L 361.4 1306.3" stroke="#92400e" marker-end="url(#head-major)"/>
    </g>    <g class="fdir-arrow major">
      <title>CAN-024: Krishna Eastern Main Canal. Direction: away from nearest Krishna/reservoir endpoint along mapped canal line.</title>
      <path class="fdir-halo" d="M 392.6 1305.5 L 402.7 1305.5 L 431.1 1310.1 L 484.7 1319.6"/>
      <path class="fdir-shadow" d="M 392.6 1305.5 L 402.7 1305.5 L 431.1 1310.1 L 484.7 1319.6"/>
      <path class="fdir-shaft" d="M 392.6 1305.5 L 402.7 1305.5 L 431.1 1310.1 L 484.7 1319.6" stroke="#92400e" marker-end="url(#head-major)"/>
    </g>    <g class="fdir-arrow major">
      <title>CAN-025: Ryves Canal. Direction: away from nearest Krishna/reservoir endpoint along mapped canal line.</title>
      <path class="fdir-halo" d="M 630.9 1273.9 L 683.4 1256.2 L 749.2 1235.3"/>
      <path class="fdir-shadow" d="M 630.9 1273.9 L 683.4 1256.2 L 749.2 1235.3"/>
      <path class="fdir-shaft" d="M 630.9 1273.9 L 683.4 1256.2 L 749.2 1235.3" stroke="#92400e" marker-end="url(#head-major)"/>
    </g>    <g class="fdir-arrow major">
      <title>CAN-026: Ryves Canal. Direction: away from nearest Krishna/reservoir endpoint along mapped canal line.</title>
      <path class="fdir-halo" d="M 797.8 1220.0 L 808.9 1216.2 L 821.6 1212.2 L 843.1 1206.0 L 865.6 1198.7 L 916.5 1182.6"/>
      <path class="fdir-shadow" d="M 797.8 1220.0 L 808.9 1216.2 L 821.6 1212.2 L 843.1 1206.0 L 865.6 1198.7 L 916.5 1182.6"/>
      <path class="fdir-shaft" d="M 797.8 1220.0 L 808.9 1216.2 L 821.6 1212.2 L 843.1 1206.0 L 865.6 1198.7 L 916.5 1182.6" stroke="#92400e" marker-end="url(#head-major)"/>
    </g>    <g class="fdir-arrow major">
      <title>CAN-027: Ryves Canal. Direction: away from nearest Krishna/reservoir endpoint along mapped canal line.</title>
      <path class="fdir-halo" d="M 964.9 1167.0 L 975.6 1163.8 L 983.6 1161.8 L 987.1 1160.8 L 1010.2 1152.9 L 1031.3 1147.0 L 1047.9 1142.1 L 1051.2 1140.5 L 1055.3 1138.2 L 1082.7 1127.6"/>
      <path class="fdir-shadow" d="M 964.9 1167.0 L 975.6 1163.8 L 983.6 1161.8 L 987.1 1160.8 L 1010.2 1152.9 L 1031.3 1147.0 L 1047.9 1142.1 L 1051.2 1140.5 L 1055.3 1138.2 L 1082.7 1127.6"/>
      <path class="fdir-shaft" d="M 964.9 1167.0 L 975.6 1163.8 L 983.6 1161.8 L 987.1 1160.8 L 1010.2 1152.9 L 1031.3 1147.0 L 1047.9 1142.1 L 1051.2 1140.5 L 1055.3 1138.2 L 1082.7 1127.6" stroke="#92400e" marker-end="url(#head-major)"/>
    </g>    <g class="fdir-arrow major">
      <title>CAN-028: Ryves Canal. Direction: away from nearest Krishna/reservoir endpoint along mapped canal line.</title>
      <path class="fdir-halo" d="M 1128.3 1105.2 L 1183.8 1075.6 L 1221.0 1061.3 L 1233.8 1059.0 L 1242.6 1059.3"/>
      <path class="fdir-shadow" d="M 1128.3 1105.2 L 1183.8 1075.6 L 1221.0 1061.3 L 1233.8 1059.0 L 1242.6 1059.3"/>
      <path class="fdir-shaft" d="M 1128.3 1105.2 L 1183.8 1075.6 L 1221.0 1061.3 L 1233.8 1059.0 L 1242.6 1059.3" stroke="#92400e" marker-end="url(#head-major)"/>
    </g>    <g class="fdir-arrow major">
      <title>CAN-029: Ryves Canal. Direction: away from nearest Krishna/reservoir endpoint along mapped canal line.</title>
      <path class="fdir-halo" d="M 1291.9 1071.2 L 1323.3 1080.8 L 1351.4 1088.8 L 1384.3 1091.4 L 1393.5 1091.4 L 1413.5 1088.9"/>
      <path class="fdir-shadow" d="M 1291.9 1071.2 L 1323.3 1080.8 L 1351.4 1088.8 L 1384.3 1091.4 L 1393.5 1091.4 L 1413.5 1088.9"/>
      <path class="fdir-shaft" d="M 1291.9 1071.2 L 1323.3 1080.8 L 1351.4 1088.8 L 1384.3 1091.4 L 1393.5 1091.4 L 1413.5 1088.9" stroke="#92400e" marker-end="url(#head-major)"/>
    </g>    <g class="fdir-arrow major">
      <title>CAN-030: Ryves Canal. Direction: away from nearest Krishna/reservoir endpoint along mapped canal line.</title>
      <path class="fdir-halo" d="M 1464.0 1082.4 L 1484.8 1079.7 L 1557.6 1071.2 L 1570.1 1069.8 L 1587.7 1068.3"/>
      <path class="fdir-shadow" d="M 1464.0 1082.4 L 1484.8 1079.7 L 1557.6 1071.2 L 1570.1 1069.8 L 1587.7 1068.3"/>
      <path class="fdir-shaft" d="M 1464.0 1082.4 L 1484.8 1079.7 L 1557.6 1071.2 L 1570.1 1069.8 L 1587.7 1068.3" stroke="#92400e" marker-end="url(#head-major)"/>
    </g>    <g class="fdir-arrow reservoir">
      <title>WAT-009: Krishna reservoir / Prakasam backwater reach. Direction: reviewed west-to-east / downstream display direction through Vijayawada.</title>
      <path class="fdir-halo" d="M 14.0 1247.4 L 44.8 1216.7 L 102.7 1215.2 L 123.7 1225.8"/>
      <path class="fdir-shadow" d="M 14.0 1247.4 L 44.8 1216.7 L 102.7 1215.2 L 123.7 1225.8"/>
      <path class="fdir-shaft" d="M 14.0 1247.4 L 44.8 1216.7 L 102.7 1215.2 L 123.7 1225.8" stroke="#0284c7" marker-end="url(#head-reservoir)"/>
    </g>    <g class="fdir-arrow reservoir">
      <title>WAT-010: Krishna reservoir / Prakasam backwater reach. Direction: reviewed west-to-east / downstream display direction through Vijayawada.</title>
      <path class="fdir-halo" d="M 224.0 1288.4 L 287.2 1333.6 L 325.9 1343.8"/>
      <path class="fdir-shadow" d="M 224.0 1288.4 L 287.2 1333.6 L 325.9 1343.8"/>
      <path class="fdir-shaft" d="M 224.0 1288.4 L 287.2 1333.6 L 325.9 1343.8" stroke="#0284c7" marker-end="url(#head-reservoir)"/>
    </g>    <g class="fdir-arrow river">
      <title>KRS-001: Krishna River branch 2.1. Direction: west / northwest to east / southeast along the mapped Krishna waterbody branch.</title>
      <path class="fdir-halo" d="M 430.0 1482.5 L 508.2 1528.4 L 552.1 1564.4"/>
      <path class="fdir-shadow" d="M 430.0 1482.5 L 508.2 1528.4 L 552.1 1564.4"/>
      <path class="fdir-shaft" d="M 430.0 1482.5 L 508.2 1528.4 L 552.1 1564.4" stroke="#0369a1" marker-end="url(#head-river)"/>
    </g>    <g class="fdir-arrow river">
      <title>KRS-002: Krishna River branch 2.1. Direction: west / northwest to east / southeast along the mapped Krishna waterbody branch.</title>
      <path class="fdir-halo" d="M 567.6 1577.1 L 579.5 1586.9 L 674.1 1679.0"/>
      <path class="fdir-shadow" d="M 567.6 1577.1 L 579.5 1586.9 L 674.1 1679.0"/>
      <path class="fdir-shaft" d="M 567.6 1577.1 L 579.5 1586.9 L 674.1 1679.0" stroke="#0369a1" marker-end="url(#head-river)"/>
    </g>    <g class="fdir-arrow river">
      <title>KRS-003: Krishna River branch 2.1. Direction: west / northwest to east / southeast along the mapped Krishna waterbody branch.</title>
      <path class="fdir-halo" d="M 688.5 1693.0 L 765.3 1767.7 L 798.4 1790.6"/>
      <path class="fdir-shadow" d="M 688.5 1693.0 L 765.3 1767.7 L 798.4 1790.6"/>
      <path class="fdir-shaft" d="M 688.5 1693.0 L 765.3 1767.7 L 798.4 1790.6" stroke="#0369a1" marker-end="url(#head-river)"/>
    </g>    <g class="fdir-arrow river">
      <title>KRS-004: Krishna River branch 2.1. Direction: west / northwest to east / southeast along the mapped Krishna waterbody branch.</title>
      <path class="fdir-halo" d="M 815.0 1802.0 L 821.0 1806.1 L 862.4 1806.9 L 927.1 1732.3"/>
      <path class="fdir-shadow" d="M 815.0 1802.0 L 821.0 1806.1 L 862.4 1806.9 L 927.1 1732.3"/>
      <path class="fdir-shaft" d="M 815.0 1802.0 L 821.0 1806.1 L 862.4 1806.9 L 927.1 1732.3" stroke="#0369a1" marker-end="url(#head-river)"/>
    </g>    <g class="fdir-arrow river">
      <title>KRS-005: Krishna River branch 2.1. Direction: west / northwest to east / southeast along the mapped Krishna waterbody branch.</title>
      <path class="fdir-halo" d="M 940.3 1717.1 L 943.0 1714.0 L 999.7 1707.2 L 1070.1 1737.6 L 1077.7 1743.2"/>
      <path class="fdir-shadow" d="M 940.3 1717.1 L 943.0 1714.0 L 999.7 1707.2 L 1070.1 1737.6 L 1077.7 1743.2"/>
      <path class="fdir-shaft" d="M 940.3 1717.1 L 943.0 1714.0 L 999.7 1707.2 L 1070.1 1737.6 L 1077.7 1743.2" stroke="#0369a1" marker-end="url(#head-river)"/>
    </g>    <g class="fdir-arrow river">
      <title>KRS-006: Krishna River branch 2.1. Direction: west / northwest to east / southeast along the mapped Krishna waterbody branch.</title>
      <path class="fdir-halo" d="M 1093.9 1755.2 L 1212.6 1842.6"/>
      <path class="fdir-shadow" d="M 1093.9 1755.2 L 1212.6 1842.6"/>
      <path class="fdir-shaft" d="M 1093.9 1755.2 L 1212.6 1842.6" stroke="#0369a1" marker-end="url(#head-river)"/>
    </g>    <g class="fdir-arrow river">
      <title>KRS-007: Krishna River branch 3.1. Direction: west / northwest to east / southeast along the mapped Krishna waterbody branch.</title>
      <path class="fdir-halo" d="M 16.5 1113.3 L 78.2 1152.1 L 123.2 1207.4"/>
      <path class="fdir-shadow" d="M 16.5 1113.3 L 78.2 1152.1 L 123.2 1207.4"/>
      <path class="fdir-shaft" d="M 16.5 1113.3 L 78.2 1152.1 L 123.2 1207.4" stroke="#0369a1" marker-end="url(#head-river)"/>
    </g>    <g class="fdir-arrow river">
      <title>KRS-008: Krishna River branch 3.1. Direction: west / northwest to east / southeast along the mapped Krishna waterbody branch.</title>
      <path class="fdir-halo" d="M 227.1 1330.3 L 249.7 1350.1 L 285.8 1361.6 L 303.6 1357.2 L 339.1 1323.3"/>
      <path class="fdir-shadow" d="M 227.1 1330.3 L 249.7 1350.1 L 285.8 1361.6 L 303.6 1357.2 L 339.1 1323.3"/>
      <path class="fdir-shaft" d="M 227.1 1330.3 L 249.7 1350.1 L 285.8 1361.6 L 303.6 1357.2 L 339.1 1323.3" stroke="#0369a1" marker-end="url(#head-river)"/>
    </g>
  </g>
</svg>
