<svg xmlns="http://www.w3.org/2000/svg" width="1700" height="1916" viewBox="0 0 1700 1916" role="img" aria-label="Vijayawada waterway FDir arrows">
  <defs>
    <marker id="head-river" markerUnits="userSpaceOnUse" viewBox="0 0 28 18" refX="25" refY="9" markerWidth="28" markerHeight="18" orient="auto">
      <path d="M2 3 L25 9 L2 15 L8 9 Z" fill="#0369a1" stroke="#ffffff" stroke-width="1.8" stroke-linejoin="round"/>
      <path d="M2 3 L25 9 L2 15 L8 9 Z" fill="none" stroke="#0f172a" stroke-width="0.65" stroke-linejoin="round" opacity="0.42"/>
    </marker>
    <marker id="head-reservoir" markerUnits="userSpaceOnUse" viewBox="0 0 28 18" refX="25" refY="9" markerWidth="28" markerHeight="18" orient="auto">
      <path d="M2 3 L25 9 L2 15 L8 9 Z" fill="#0284c7" stroke="#ffffff" stroke-width="1.8" stroke-linejoin="round"/>
      <path d="M2 3 L25 9 L2 15 L8 9 Z" fill="none" stroke="#0f172a" stroke-width="0.65" stroke-linejoin="round" opacity="0.42"/>
    </marker>
    <marker id="head-budameru" markerUnits="userSpaceOnUse" viewBox="0 0 28 18" refX="25" refY="9" markerWidth="28" markerHeight="18" orient="auto">
      <path d="M2 3 L25 9 L2 15 L8 9 Z" fill="#0f766e" stroke="#ffffff" stroke-width="1.8" stroke-linejoin="round"/>
      <path d="M2 3 L25 9 L2 15 L8 9 Z" fill="none" stroke="#0f172a" stroke-width="0.65" stroke-linejoin="round" opacity="0.42"/>
    </marker>
    <marker id="head-canal" markerUnits="userSpaceOnUse" viewBox="0 0 28 18" refX="25" refY="9" markerWidth="28" markerHeight="18" orient="auto">
      <path d="M2 3 L25 9 L2 15 L8 9 Z" fill="#b45309" stroke="#ffffff" stroke-width="1.8" stroke-linejoin="round"/>
      <path d="M2 3 L25 9 L2 15 L8 9 Z" fill="none" stroke="#0f172a" stroke-width="0.65" stroke-linejoin="round" opacity="0.42"/>
    </marker>
    <marker id="head-major" markerUnits="userSpaceOnUse" viewBox="0 0 28 18" refX="25" refY="9" markerWidth="28" markerHeight="18" orient="auto">
      <path d="M2 3 L25 9 L2 15 L8 9 Z" fill="#92400e" stroke="#ffffff" stroke-width="1.8" stroke-linejoin="round"/>
      <path d="M2 3 L25 9 L2 15 L8 9 Z" fill="none" stroke="#0f172a" stroke-width="0.65" stroke-linejoin="round" opacity="0.42"/>
    </marker>
    <style>
      .fdir-halo { fill:none; stroke:#ffffff; stroke-width:9; stroke-linecap:round; stroke-linejoin:round; opacity:0.82; }
      .fdir-shadow { fill:none; stroke:#020617; stroke-width:5.5; stroke-linecap:round; stroke-linejoin:round; opacity:0.16; }
      .fdir-shaft { fill:none; stroke-width:4.4; stroke-linecap:round; stroke-linejoin:round; opacity:0.94; }
      .river .fdir-shaft, .reservoir .fdir-shaft { stroke-width:5.2; }
    </style>
  </defs>
  <desc>Waterway FDir arrows generated from path-following river, canal and Budameru geometry.</desc>
  <rect width="1700" height="1916" fill="none"/>
  <g id="fdir-flow-arrows" data-feature-count="49">
    <g class="fdir-arrow budameru">
      <title>WAT-013: Budameru Canal. Direction: reviewed west-to-east / downstream display direction through Vijayawada.</title>
      <path class="fdir-halo" d="M 651.8 644.2 L 667.2 652.4 L 706.6 705.9 L 727.6 751.7"/>
      <path class="fdir-shadow" d="M 651.8 644.2 L 667.2 652.4 L 706.6 705.9 L 727.6 751.7"/>
      <path class="fdir-shaft" d="M 651.8 644.2 L 667.2 652.4 L 706.6 705.9 L 727.6 751.7" stroke="#0f766e" marker-end="url(#head-budameru)"/>
    </g>    <g class="fdir-arrow budameru">
      <title>WAT-014: Budameru Canal. Direction: reviewed west-to-east / downstream display direction through Vijayawada.</title>
      <path class="fdir-halo" d="M 743.0 785.5 L 788.4 884.5 L 805.5 903.2"/>
      <path class="fdir-shadow" d="M 743.0 785.5 L 788.4 884.5 L 805.5 903.2"/>
      <path class="fdir-shaft" d="M 743.0 785.5 L 788.4 884.5 L 805.5 903.2" stroke="#0f766e" marker-end="url(#head-budameru)"/>
    </g>    <g class="fdir-arrow budameru">
      <title>WAT-015: Budameru Canal. Direction: reviewed west-to-east / downstream display direction through Vijayawada.</title>
      <path class="fdir-halo" d="M 830.8 930.3 L 884.1 961.5 L 956.0 970.8"/>
      <path class="fdir-shadow" d="M 830.8 930.3 L 884.1 961.5 L 956.0 970.8"/>
      <path class="fdir-shaft" d="M 830.8 930.3 L 884.1 961.5 L 956.0 970.8" stroke="#0f766e" marker-end="url(#head-budameru)"/>
    </g>    <g class="fdir-arrow budameru">
      <title>WAT-016: Budameru Canal. Direction: reviewed west-to-east / downstream display direction through Vijayawada.</title>
      <path class="fdir-halo" d="M 992.8 975.6 L 1126.0 993.0"/>
      <path class="fdir-shadow" d="M 992.8 975.6 L 1126.0 993.0"/>
      <path class="fdir-shaft" d="M 992.8 975.6 L 1126.0 993.0" stroke="#0f766e" marker-end="url(#head-budameru)"/>
    </g>    <g class="fdir-arrow budameru">
      <title>WAT-017: Budameru Canal. Direction: reviewed west-to-east / downstream display direction through Vijayawada.</title>
      <path class="fdir-halo" d="M 1162.8 997.8 L 1192.8 1001.7 L 1293.2 1028.8"/>
      <path class="fdir-shadow" d="M 1162.8 997.8 L 1192.8 1001.7 L 1293.2 1028.8"/>
      <path class="fdir-shaft" d="M 1162.8 997.8 L 1192.8 1001.7 L 1293.2 1028.8" stroke="#0f766e" marker-end="url(#head-budameru)"/>
    </g>    <g class="fdir-arrow budameru">
      <title>WAT-018: Budameru Canal. Direction: reviewed west-to-east / downstream display direction through Vijayawada.</title>
      <path class="fdir-halo" d="M 1329.1 1038.4 L 1397.1 1056.8 L 1460.9 1054.5"/>
      <path class="fdir-shadow" d="M 1329.1 1038.4 L 1397.1 1056.8 L 1460.9 1054.5"/>
      <path class="fdir-shaft" d="M 1329.1 1038.4 L 1397.1 1056.8 L 1460.9 1054.5" stroke="#0f766e" marker-end="url(#head-budameru)"/>
    </g>    <g class="fdir-arrow budameru">
      <title>BUD-034: Budameru Canal. Direction: west / northwest to east / southeast along mapped Budameru waterway.</title>
      <path class="fdir-halo" d="M 702.8 683.4 L 705.1 684.2 L 710.3 685.7 L 713.6 689.1 L 712.7 691.7 L 708.7 694.1 L 708.2 696.9 L 709.2 700.6 L 709.8 706.4 L 712.2 710.9 L 713.8 716.1 L 715.0 721.1 L 718.1 724.4 L 723.6 724.4 L 735.8 722.5 L 739.6 722.1 L 743.1 724.2 L 743.0 727.3 L 740.9 732.1 L 740.9 736.3 L 743.1 738.0 L 747.0 737.6 L 751.3 738.1 L 753.6 742.0 L 752.4 744.6 L 750.3 749.2"/>
      <path class="fdir-shadow" d="M 702.8 683.4 L 705.1 684.2 L 710.3 685.7 L 713.6 689.1 L 712.7 691.7 L 708.7 694.1 L 708.2 696.9 L 709.2 700.6 L 709.8 706.4 L 712.2 710.9 L 713.8 716.1 L 715.0 721.1 L 718.1 724.4 L 723.6 724.4 L 735.8 722.5 L 739.6 722.1 L 743.1 724.2 L 743.0 727.3 L 740.9 732.1 L 740.9 736.3 L 743.1 738.0 L 747.0 737.6 L 751.3 738.1 L 753.6 742.0 L 752.4 744.6 L 750.3 749.2"/>
      <path class="fdir-shaft" d="M 702.8 683.4 L 705.1 684.2 L 710.3 685.7 L 713.6 689.1 L 712.7 691.7 L 708.7 694.1 L 708.2 696.9 L 709.2 700.6 L 709.8 706.4 L 712.2 710.9 L 713.8 716.1 L 715.0 721.1 L 718.1 724.4 L 723.6 724.4 L 735.8 722.5 L 739.6 722.1 L 743.1 724.2 L 743.0 727.3 L 740.9 732.1 L 740.9 736.3 L 743.1 738.0 L 747.0 737.6 L 751.3 738.1 L 753.6 742.0 L 752.4 744.6 L 750.3 749.2" stroke="#0f766e" marker-end="url(#head-budameru)"/>
    </g>    <g class="fdir-arrow budameru">
      <title>BUD-035: Budameru Canal. Direction: west / northwest to east / southeast along mapped Budameru waterway.</title>
      <path class="fdir-halo" d="M 739.4 769.9 L 738.2 772.7 L 738.0 776.3 L 742.3 782.0 L 743.1 786.2 L 741.3 789.8 L 737.0 792.3 L 731.7 793.1 L 724.4 792.6 L 719.0 793.2 L 714.1 796.6 L 711.9 802.6 L 713.8 809.4 L 719.1 812.5 L 729.4 810.7 L 737.7 809.9 L 742.2 814.1 L 741.2 818.3 L 738.6 822.2 L 739.7 828.1 L 743.6 829.0"/>
      <path class="fdir-shadow" d="M 739.4 769.9 L 738.2 772.7 L 738.0 776.3 L 742.3 782.0 L 743.1 786.2 L 741.3 789.8 L 737.0 792.3 L 731.7 793.1 L 724.4 792.6 L 719.0 793.2 L 714.1 796.6 L 711.9 802.6 L 713.8 809.4 L 719.1 812.5 L 729.4 810.7 L 737.7 809.9 L 742.2 814.1 L 741.2 818.3 L 738.6 822.2 L 739.7 828.1 L 743.6 829.0"/>
      <path class="fdir-shaft" d="M 739.4 769.9 L 738.2 772.7 L 738.0 776.3 L 742.3 782.0 L 743.1 786.2 L 741.3 789.8 L 737.0 792.3 L 731.7 793.1 L 724.4 792.6 L 719.0 793.2 L 714.1 796.6 L 711.9 802.6 L 713.8 809.4 L 719.1 812.5 L 729.4 810.7 L 737.7 809.9 L 742.2 814.1 L 741.2 818.3 L 738.6 822.2 L 739.7 828.1 L 743.6 829.0" stroke="#0f766e" marker-end="url(#head-budameru)"/>
    </g>    <g class="fdir-arrow budameru">
      <title>BUD-036: Budameru Canal. Direction: west / northwest to east / southeast along mapped Budameru waterway.</title>
      <path class="fdir-halo" d="M 757.6 845.2 L 761.4 844.0 L 764.1 841.0 L 769.2 840.5 L 775.5 845.3 L 785.6 853.8 L 794.0 861.6 L 796.8 867.6 L 793.9 873.1 L 784.8 876.9 L 783.0 883.0 L 785.8 886.5 L 791.6 888.3 L 800.0 891.6 L 802.8 897.2 L 805.6 903.8 L 811.5 907.4"/>
      <path class="fdir-shadow" d="M 757.6 845.2 L 761.4 844.0 L 764.1 841.0 L 769.2 840.5 L 775.5 845.3 L 785.6 853.8 L 794.0 861.6 L 796.8 867.6 L 793.9 873.1 L 784.8 876.9 L 783.0 883.0 L 785.8 886.5 L 791.6 888.3 L 800.0 891.6 L 802.8 897.2 L 805.6 903.8 L 811.5 907.4"/>
      <path class="fdir-shaft" d="M 757.6 845.2 L 761.4 844.0 L 764.1 841.0 L 769.2 840.5 L 775.5 845.3 L 785.6 853.8 L 794.0 861.6 L 796.8 867.6 L 793.9 873.1 L 784.8 876.9 L 783.0 883.0 L 785.8 886.5 L 791.6 888.3 L 800.0 891.6 L 802.8 897.2 L 805.6 903.8 L 811.5 907.4" stroke="#0f766e" marker-end="url(#head-budameru)"/>
    </g>    <g class="fdir-arrow budameru">
      <title>BUD-037: Budameru Canal. Direction: west / northwest to east / southeast along mapped Budameru waterway.</title>
      <path class="fdir-halo" d="M 818.0 929.2 L 820.9 940.2 L 826.0 948.9 L 833.1 959.8 L 846.6 977.4 L 857.3 988.6 L 866.5 998.8 L 876.1 1000.7 L 889.3 997.3 L 894.1 995.0"/>
      <path class="fdir-shadow" d="M 818.0 929.2 L 820.9 940.2 L 826.0 948.9 L 833.1 959.8 L 846.6 977.4 L 857.3 988.6 L 866.5 998.8 L 876.1 1000.7 L 889.3 997.3 L 894.1 995.0"/>
      <path class="fdir-shaft" d="M 818.0 929.2 L 820.9 940.2 L 826.0 948.9 L 833.1 959.8 L 846.6 977.4 L 857.3 988.6 L 866.5 998.8 L 876.1 1000.7 L 889.3 997.3 L 894.1 995.0" stroke="#0f766e" marker-end="url(#head-budameru)"/>
    </g>    <g class="fdir-arrow budameru">
      <title>BUD-038: Budameru Canal. Direction: west / northwest to east / southeast along mapped Budameru waterway.</title>
      <path class="fdir-halo" d="M 916.1 986.1 L 925.3 982.9 L 953.8 973.1 L 974.6 967.0 L 989.9 961.4 L 1002.0 959.0 L 1016.4 956.9 L 1026.1 955.0"/>
      <path class="fdir-shadow" d="M 916.1 986.1 L 925.3 982.9 L 953.8 973.1 L 974.6 967.0 L 989.9 961.4 L 1002.0 959.0 L 1016.4 956.9 L 1026.1 955.0"/>
      <path class="fdir-shaft" d="M 916.1 986.1 L 925.3 982.9 L 953.8 973.1 L 974.6 967.0 L 989.9 961.4 L 1002.0 959.0 L 1016.4 956.9 L 1026.1 955.0" stroke="#0f766e" marker-end="url(#head-budameru)"/>
    </g>    <g class="fdir-arrow budameru">
      <title>BUD-039: Budameru Canal. Direction: west / northwest to east / southeast along mapped Budameru waterway.</title>
      <path class="fdir-halo" d="M 1049.6 956.8 L 1053.4 957.8 L 1057.8 961.3 L 1070.6 968.7 L 1077.2 973.1 L 1088.6 975.6 L 1107.2 978.7 L 1130.2 983.8 L 1141.8 987.4 L 1154.8 989.3 L 1157.5 990.6"/>
      <path class="fdir-shadow" d="M 1049.6 956.8 L 1053.4 957.8 L 1057.8 961.3 L 1070.6 968.7 L 1077.2 973.1 L 1088.6 975.6 L 1107.2 978.7 L 1130.2 983.8 L 1141.8 987.4 L 1154.8 989.3 L 1157.5 990.6"/>
      <path class="fdir-shaft" d="M 1049.6 956.8 L 1053.4 957.8 L 1057.8 961.3 L 1070.6 968.7 L 1077.2 973.1 L 1088.6 975.6 L 1107.2 978.7 L 1130.2 983.8 L 1141.8 987.4 L 1154.8 989.3 L 1157.5 990.6" stroke="#0f766e" marker-end="url(#head-budameru)"/>
    </g>    <g class="fdir-arrow budameru">
      <title>BUD-040: Budameru Canal. Direction: west / northwest to east / southeast along mapped Budameru waterway.</title>
      <path class="fdir-halo" d="M 1179.3 1000.0 L 1182.2 1001.1 L 1202.1 1010.4 L 1237.6 1023.7 L 1264.8 1034.2 L 1285.8 1042.3"/>
      <path class="fdir-shadow" d="M 1179.3 1000.0 L 1182.2 1001.1 L 1202.1 1010.4 L 1237.6 1023.7 L 1264.8 1034.2 L 1285.8 1042.3"/>
      <path class="fdir-shaft" d="M 1179.3 1000.0 L 1182.2 1001.1 L 1202.1 1010.4 L 1237.6 1023.7 L 1264.8 1034.2 L 1285.8 1042.3" stroke="#0f766e" marker-end="url(#head-budameru)"/>
    </g>    <g class="fdir-arrow budameru">
      <title>BUD-041: Budameru Canal. Direction: west / northwest to east / southeast along mapped Budameru waterway.</title>
      <path class="fdir-halo" d="M 1308.2 1050.4 L 1312.0 1051.8 L 1327.4 1057.8 L 1343.4 1060.4 L 1353.8 1061.5 L 1368.5 1061.6 L 1387.5 1059.7 L 1410.6 1057.0 L 1420.8 1055.5"/>
      <path class="fdir-shadow" d="M 1308.2 1050.4 L 1312.0 1051.8 L 1327.4 1057.8 L 1343.4 1060.4 L 1353.8 1061.5 L 1368.5 1061.6 L 1387.5 1059.7 L 1410.6 1057.0 L 1420.8 1055.5"/>
      <path class="fdir-shaft" d="M 1308.2 1050.4 L 1312.0 1051.8 L 1327.4 1057.8 L 1343.4 1060.4 L 1353.8 1061.5 L 1368.5 1061.6 L 1387.5 1059.7 L 1410.6 1057.0 L 1420.8 1055.5" stroke="#0f766e" marker-end="url(#head-budameru)"/>
    </g>    <g class="fdir-arrow budameru">
      <title>BUD-042: Budameru Canal. Direction: west / northwest to east / southeast along mapped Budameru waterway.</title>
      <path class="fdir-halo" d="M 1444.0 1050.4 L 1454.7 1047.9 L 1468.7 1042.9 L 1480.0 1041.9 L 1489.5 1040.4 L 1502.3 1035.7 L 1508.9 1033.3 L 1516.5 1030.7 L 1523.9 1029.9 L 1536.0 1032.3 L 1549.1 1032.8 L 1555.1 1031.2"/>
      <path class="fdir-shadow" d="M 1444.0 1050.4 L 1454.7 1047.9 L 1468.7 1042.9 L 1480.0 1041.9 L 1489.5 1040.4 L 1502.3 1035.7 L 1508.9 1033.3 L 1516.5 1030.7 L 1523.9 1029.9 L 1536.0 1032.3 L 1549.1 1032.8 L 1555.1 1031.2"/>
      <path class="fdir-shaft" d="M 1444.0 1050.4 L 1454.7 1047.9 L 1468.7 1042.9 L 1480.0 1041.9 L 1489.5 1040.4 L 1502.3 1035.7 L 1508.9 1033.3 L 1516.5 1030.7 L 1523.9 1029.9 L 1536.0 1032.3 L 1549.1 1032.8 L 1555.1 1031.2" stroke="#0f766e" marker-end="url(#head-budameru)"/>
    </g>    <g class="fdir-arrow budameru">
      <title>BUD-043: Budameru Canal. Direction: west / northwest to east / southeast along mapped Budameru waterway.</title>
      <path class="fdir-halo" d="M 1578.2 1025.8 L 1581.0 1025.4 L 1593.6 1027.2 L 1604.9 1027.9 L 1613.6 1027.5 L 1627.6 1025.3 L 1641.2 1022.8 L 1652.6 1019.6 L 1659.7 1018.6 L 1668.2 1017.9 L 1680.6 1016.1 L 1684.1 1015.6 L 1687.3 1015.1 L 1691.4 1014.1"/>
      <path class="fdir-shadow" d="M 1578.2 1025.8 L 1581.0 1025.4 L 1593.6 1027.2 L 1604.9 1027.9 L 1613.6 1027.5 L 1627.6 1025.3 L 1641.2 1022.8 L 1652.6 1019.6 L 1659.7 1018.6 L 1668.2 1017.9 L 1680.6 1016.1 L 1684.1 1015.6 L 1687.3 1015.1 L 1691.4 1014.1"/>
      <path class="fdir-shaft" d="M 1578.2 1025.8 L 1581.0 1025.4 L 1593.6 1027.2 L 1604.9 1027.9 L 1613.6 1027.5 L 1627.6 1025.3 L 1641.2 1022.8 L 1652.6 1019.6 L 1659.7 1018.6 L 1668.2 1017.9 L 1680.6 1016.1 L 1684.1 1015.6 L 1687.3 1015.1 L 1691.4 1014.1" stroke="#0f766e" marker-end="url(#head-budameru)"/>
    </g>    <g class="fdir-arrow budameru">
      <title>BUD-044: Budameru River. Direction: west / northwest to east / southeast along mapped Budameru waterway.</title>
      <path class="fdir-halo" d="M -0.0 242.9 L 3.0 243.9 L 8.2 244.3 L 19.7 246.0 L 27.1 248.8 L 31.4 251.7 L 33.3 258.0 L 36.0 263.2 L 40.6 270.0 L 44.3 272.4 L 46.9 282.9 L 49.8 287.8 L 55.4 293.6 L 60.1 294.1"/>
      <path class="fdir-shadow" d="M -0.0 242.9 L 3.0 243.9 L 8.2 244.3 L 19.7 246.0 L 27.1 248.8 L 31.4 251.7 L 33.3 258.0 L 36.0 263.2 L 40.6 270.0 L 44.3 272.4 L 46.9 282.9 L 49.8 287.8 L 55.4 293.6 L 60.1 294.1"/>
      <path class="fdir-shaft" d="M -0.0 242.9 L 3.0 243.9 L 8.2 244.3 L 19.7 246.0 L 27.1 248.8 L 31.4 251.7 L 33.3 258.0 L 36.0 263.2 L 40.6 270.0 L 44.3 272.4 L 46.9 282.9 L 49.8 287.8 L 55.4 293.6 L 60.1 294.1" stroke="#0f766e" marker-end="url(#head-budameru)"/>
    </g>    <g class="fdir-arrow budameru">
      <title>BUD-045: Budameru River. Direction: west / northwest to east / southeast along mapped Budameru waterway.</title>
      <path class="fdir-halo" d="M 74.7 302.4 L 82.4 310.0 L 95.1 318.8 L 103.5 325.9 L 109.9 336.4 L 120.9 346.7 L 128.8 364.1"/>
      <path class="fdir-shadow" d="M 74.7 302.4 L 82.4 310.0 L 95.1 318.8 L 103.5 325.9 L 109.9 336.4 L 120.9 346.7 L 128.8 364.1"/>
      <path class="fdir-shaft" d="M 74.7 302.4 L 82.4 310.0 L 95.1 318.8 L 103.5 325.9 L 109.9 336.4 L 120.9 346.7 L 128.8 364.1" stroke="#0f766e" marker-end="url(#head-budameru)"/>
    </g>    <g class="fdir-arrow budameru">
      <title>BUD-046: Budameru River. Direction: west / northwest to east / southeast along mapped Budameru waterway.</title>
      <path class="fdir-halo" d="M 148.1 399.6 L 148.5 400.1 L 152.9 406.5 L 156.7 411.1 L 156.5 419.2 L 160.3 425.4 L 164.9 434.8 L 171.9 446.3 L 180.8 457.2 L 184.4 465.6 L 186.9 472.1 L 190.2 474.8 L 194.1 478.9 L 198.1 489.6 L 200.3 496.2 L 201.4 498.4"/>
      <path class="fdir-shadow" d="M 148.1 399.6 L 148.5 400.1 L 152.9 406.5 L 156.7 411.1 L 156.5 419.2 L 160.3 425.4 L 164.9 434.8 L 171.9 446.3 L 180.8 457.2 L 184.4 465.6 L 186.9 472.1 L 190.2 474.8 L 194.1 478.9 L 198.1 489.6 L 200.3 496.2 L 201.4 498.4"/>
      <path class="fdir-shaft" d="M 148.1 399.6 L 148.5 400.1 L 152.9 406.5 L 156.7 411.1 L 156.5 419.2 L 160.3 425.4 L 164.9 434.8 L 171.9 446.3 L 180.8 457.2 L 184.4 465.6 L 186.9 472.1 L 190.2 474.8 L 194.1 478.9 L 198.1 489.6 L 200.3 496.2 L 201.4 498.4" stroke="#0f766e" marker-end="url(#head-budameru)"/>
    </g>    <g class="fdir-arrow budameru">
      <title>BUD-047: Budameru River. Direction: west / northwest to east / southeast along mapped Budameru waterway.</title>
      <path class="fdir-halo" d="M 220.0 518.8 L 229.8 526.1 L 241.1 538.5 L 252.0 544.7 L 271.8 557.2 L 275.7 560.1 L 278.9 564.6 L 284.0 573.0 L 290.8 577.4 L 296.8 581.4 L 309.5 587.7"/>
      <path class="fdir-shadow" d="M 220.0 518.8 L 229.8 526.1 L 241.1 538.5 L 252.0 544.7 L 271.8 557.2 L 275.7 560.1 L 278.9 564.6 L 284.0 573.0 L 290.8 577.4 L 296.8 581.4 L 309.5 587.7"/>
      <path class="fdir-shaft" d="M 220.0 518.8 L 229.8 526.1 L 241.1 538.5 L 252.0 544.7 L 271.8 557.2 L 275.7 560.1 L 278.9 564.6 L 284.0 573.0 L 290.8 577.4 L 296.8 581.4 L 309.5 587.7" stroke="#0f766e" marker-end="url(#head-budameru)"/>
    </g>    <g class="fdir-arrow budameru">
      <title>BUD-048: Budameru River. Direction: west / northwest to east / southeast along mapped Budameru waterway.</title>
      <path class="fdir-halo" d="M 336.9 590.4 L 339.4 590.9 L 343.8 596.8 L 356.0 609.2 L 365.2 619.2 L 402.5 640.6 L 428.2 657.4"/>
      <path class="fdir-shadow" d="M 336.9 590.4 L 339.4 590.9 L 343.8 596.8 L 356.0 609.2 L 365.2 619.2 L 402.5 640.6 L 428.2 657.4"/>
      <path class="fdir-shaft" d="M 336.9 590.4 L 339.4 590.9 L 343.8 596.8 L 356.0 609.2 L 365.2 619.2 L 402.5 640.6 L 428.2 657.4" stroke="#0f766e" marker-end="url(#head-budameru)"/>
    </g>    <g class="fdir-arrow budameru">
      <title>BUD-049: Budameru River. Direction: west / northwest to east / southeast along mapped Budameru waterway.</title>
      <path class="fdir-halo" d="M 451.7 672.8 L 462.2 679.7 L 466.3 682.2 L 470.2 684.4 L 474.3 681.0 L 476.9 680.8 L 480.9 678.2 L 488.2 671.0 L 492.9 666.1 L 495.9 659.5 L 495.7 652.3 L 497.9 647.6 L 499.0 644.8 L 499.3 641.7 L 495.2 640.4 L 491.2 639.6 L 488.2 637.8 L 488.3 635.5 L 490.1 629.7 L 491.2 626.2 L 491.5 622.0 L 490.9 618.9 L 493.0 615.4 L 493.9 613.6"/>
      <path class="fdir-shadow" d="M 451.7 672.8 L 462.2 679.7 L 466.3 682.2 L 470.2 684.4 L 474.3 681.0 L 476.9 680.8 L 480.9 678.2 L 488.2 671.0 L 492.9 666.1 L 495.9 659.5 L 495.7 652.3 L 497.9 647.6 L 499.0 644.8 L 499.3 641.7 L 495.2 640.4 L 491.2 639.6 L 488.2 637.8 L 488.3 635.5 L 490.1 629.7 L 491.2 626.2 L 491.5 622.0 L 490.9 618.9 L 493.0 615.4 L 493.9 613.6"/>
      <path class="fdir-shaft" d="M 451.7 672.8 L 462.2 679.7 L 466.3 682.2 L 470.2 684.4 L 474.3 681.0 L 476.9 680.8 L 480.9 678.2 L 488.2 671.0 L 492.9 666.1 L 495.9 659.5 L 495.7 652.3 L 497.9 647.6 L 499.0 644.8 L 499.3 641.7 L 495.2 640.4 L 491.2 639.6 L 488.2 637.8 L 488.3 635.5 L 490.1 629.7 L 491.2 626.2 L 491.5 622.0 L 490.9 618.9 L 493.0 615.4 L 493.9 613.6" stroke="#0f766e" marker-end="url(#head-budameru)"/>
    </g>    <g class="fdir-arrow major">
      <title>CAN-019: Eluru Canal. Direction: away from nearest Krishna/reservoir endpoint along mapped canal line.</title>
      <path class="fdir-halo" d="M 605.1 1225.1 L 622.8 1210.4 L 644.1 1194.7 L 700.7 1145.6"/>
      <path class="fdir-shadow" d="M 605.1 1225.1 L 622.8 1210.4 L 644.1 1194.7 L 700.7 1145.6"/>
      <path class="fdir-shaft" d="M 605.1 1225.1 L 622.8 1210.4 L 644.1 1194.7 L 700.7 1145.6" stroke="#92400e" marker-end="url(#head-major)"/>
    </g>    <g class="fdir-arrow major">
      <title>CAN-020: Eluru Canal. Direction: away from nearest Krishna/reservoir endpoint along mapped canal line.</title>
      <path class="fdir-halo" d="M 725.7 1123.9 L 804.9 1055.2 L 821.0 1044.0"/>
      <path class="fdir-shadow" d="M 725.7 1123.9 L 804.9 1055.2 L 821.0 1044.0"/>
      <path class="fdir-shaft" d="M 725.7 1123.9 L 804.9 1055.2 L 821.0 1044.0" stroke="#92400e" marker-end="url(#head-major)"/>
    </g>    <g class="fdir-arrow major">
      <title>CAN-021: Eluru Canal. Direction: away from nearest Krishna/reservoir endpoint along mapped canal line.</title>
      <path class="fdir-halo" d="M 849.2 1026.8 L 874.0 1013.5 L 964.9 981.5"/>
      <path class="fdir-shadow" d="M 849.2 1026.8 L 874.0 1013.5 L 964.9 981.5"/>
      <path class="fdir-shaft" d="M 849.2 1026.8 L 874.0 1013.5 L 964.9 981.5" stroke="#92400e" marker-end="url(#head-major)"/>
    </g>    <g class="fdir-arrow major">
      <title>CAN-022: Eluru Canal. Direction: away from nearest Krishna/reservoir endpoint along mapped canal line.</title>
      <path class="fdir-halo" d="M 996.5 972.7 L 1030.1 972.1 L 1053.9 976.6 L 1117.3 997.0"/>
      <path class="fdir-shadow" d="M 996.5 972.7 L 1030.1 972.1 L 1053.9 976.6 L 1117.3 997.0"/>
      <path class="fdir-shaft" d="M 996.5 972.7 L 1030.1 972.1 L 1053.9 976.6 L 1117.3 997.0" stroke="#92400e" marker-end="url(#head-major)"/>
    </g>    <g class="fdir-arrow major">
      <title>CAN-023: Eluru Canal. Direction: away from nearest Krishna/reservoir endpoint along mapped canal line.</title>
      <path class="fdir-halo" d="M 1148.8 1007.2 L 1214.7 1028.4 L 1266.7 1047.2"/>
      <path class="fdir-shadow" d="M 1148.8 1007.2 L 1214.7 1028.4 L 1266.7 1047.2"/>
      <path class="fdir-shaft" d="M 1148.8 1007.2 L 1214.7 1028.4 L 1266.7 1047.2" stroke="#92400e" marker-end="url(#head-major)"/>
    </g>    <g class="fdir-arrow major">
      <title>CAN-024: Eluru Canal. Direction: away from nearest Krishna/reservoir endpoint along mapped canal line.</title>
      <path class="fdir-halo" d="M 1297.8 1058.4 L 1313.3 1064.1 L 1330.1 1070.4 L 1332.4 1071.2 L 1346.9 1073.9 L 1391.3 1073.2 L 1419.1 1067.5"/>
      <path class="fdir-shadow" d="M 1297.8 1058.4 L 1313.3 1064.1 L 1330.1 1070.4 L 1332.4 1071.2 L 1346.9 1073.9 L 1391.3 1073.2 L 1419.1 1067.5"/>
      <path class="fdir-shaft" d="M 1297.8 1058.4 L 1313.3 1064.1 L 1330.1 1070.4 L 1332.4 1071.2 L 1346.9 1073.9 L 1391.3 1073.2 L 1419.1 1067.5" stroke="#92400e" marker-end="url(#head-major)"/>
    </g>    <g class="fdir-arrow major">
      <title>CAN-025: Eluru Canal. Direction: away from nearest Krishna/reservoir endpoint along mapped canal line.</title>
      <path class="fdir-halo" d="M 1451.5 1060.8 L 1531.0 1044.5 L 1557.3 1042.2 L 1574.2 1041.3"/>
      <path class="fdir-shadow" d="M 1451.5 1060.8 L 1531.0 1044.5 L 1557.3 1042.2 L 1574.2 1041.3"/>
      <path class="fdir-shaft" d="M 1451.5 1060.8 L 1531.0 1044.5 L 1557.3 1042.2 L 1574.2 1041.3" stroke="#92400e" marker-end="url(#head-major)"/>
    </g>    <g class="fdir-arrow major">
      <title>CAN-026: Krishna Eastern Main Canal. Direction: away from nearest Krishna/reservoir endpoint along mapped canal line.</title>
      <path class="fdir-halo" d="M 292.3 1366.2 L 331.3 1312.7 L 339.6 1307.7 L 346.3 1307.1 L 361.4 1306.3"/>
      <path class="fdir-shadow" d="M 292.3 1366.2 L 331.3 1312.7 L 339.6 1307.7 L 346.3 1307.1 L 361.4 1306.3"/>
      <path class="fdir-shaft" d="M 292.3 1366.2 L 331.3 1312.7 L 339.6 1307.7 L 346.3 1307.1 L 361.4 1306.3" stroke="#92400e" marker-end="url(#head-major)"/>
    </g>    <g class="fdir-arrow major">
      <title>CAN-027: Krishna Eastern Main Canal. Direction: away from nearest Krishna/reservoir endpoint along mapped canal line.</title>
      <path class="fdir-halo" d="M 392.6 1305.5 L 402.7 1305.5 L 431.1 1310.1 L 484.7 1319.6"/>
      <path class="fdir-shadow" d="M 392.6 1305.5 L 402.7 1305.5 L 431.1 1310.1 L 484.7 1319.6"/>
      <path class="fdir-shaft" d="M 392.6 1305.5 L 402.7 1305.5 L 431.1 1310.1 L 484.7 1319.6" stroke="#92400e" marker-end="url(#head-major)"/>
    </g>    <g class="fdir-arrow major">
      <title>CAN-028: Ryves Canal. Direction: away from nearest Krishna/reservoir endpoint along mapped canal line.</title>
      <path class="fdir-halo" d="M 630.9 1273.9 L 683.4 1256.2 L 749.2 1235.3"/>
      <path class="fdir-shadow" d="M 630.9 1273.9 L 683.4 1256.2 L 749.2 1235.3"/>
      <path class="fdir-shaft" d="M 630.9 1273.9 L 683.4 1256.2 L 749.2 1235.3" stroke="#92400e" marker-end="url(#head-major)"/>
    </g>    <g class="fdir-arrow major">
      <title>CAN-029: Ryves Canal. Direction: away from nearest Krishna/reservoir endpoint along mapped canal line.</title>
      <path class="fdir-halo" d="M 797.8 1220.0 L 808.9 1216.2 L 821.6 1212.2 L 843.1 1206.0 L 865.6 1198.7 L 916.5 1182.6"/>
      <path class="fdir-shadow" d="M 797.8 1220.0 L 808.9 1216.2 L 821.6 1212.2 L 843.1 1206.0 L 865.6 1198.7 L 916.5 1182.6"/>
      <path class="fdir-shaft" d="M 797.8 1220.0 L 808.9 1216.2 L 821.6 1212.2 L 843.1 1206.0 L 865.6 1198.7 L 916.5 1182.6" stroke="#92400e" marker-end="url(#head-major)"/>
    </g>    <g class="fdir-arrow major">
      <title>CAN-030: Ryves Canal. Direction: away from nearest Krishna/reservoir endpoint along mapped canal line.</title>
      <path class="fdir-halo" d="M 964.9 1167.0 L 975.6 1163.8 L 983.6 1161.8 L 987.1 1160.8 L 1010.2 1152.9 L 1031.3 1147.0 L 1047.9 1142.1 L 1051.2 1140.5 L 1055.3 1138.2 L 1082.7 1127.6"/>
      <path class="fdir-shadow" d="M 964.9 1167.0 L 975.6 1163.8 L 983.6 1161.8 L 987.1 1160.8 L 1010.2 1152.9 L 1031.3 1147.0 L 1047.9 1142.1 L 1051.2 1140.5 L 1055.3 1138.2 L 1082.7 1127.6"/>
      <path class="fdir-shaft" d="M 964.9 1167.0 L 975.6 1163.8 L 983.6 1161.8 L 987.1 1160.8 L 1010.2 1152.9 L 1031.3 1147.0 L 1047.9 1142.1 L 1051.2 1140.5 L 1055.3 1138.2 L 1082.7 1127.6" stroke="#92400e" marker-end="url(#head-major)"/>
    </g>    <g class="fdir-arrow major">
      <title>CAN-031: Ryves Canal. Direction: away from nearest Krishna/reservoir endpoint along mapped canal line.</title>
      <path class="fdir-halo" d="M 1128.3 1105.2 L 1183.8 1075.6 L 1221.0 1061.3 L 1233.8 1059.0 L 1242.6 1059.3"/>
      <path class="fdir-shadow" d="M 1128.3 1105.2 L 1183.8 1075.6 L 1221.0 1061.3 L 1233.8 1059.0 L 1242.6 1059.3"/>
      <path class="fdir-shaft" d="M 1128.3 1105.2 L 1183.8 1075.6 L 1221.0 1061.3 L 1233.8 1059.0 L 1242.6 1059.3" stroke="#92400e" marker-end="url(#head-major)"/>
    </g>    <g class="fdir-arrow major">
      <title>CAN-032: Ryves Canal. Direction: away from nearest Krishna/reservoir endpoint along mapped canal line.</title>
      <path class="fdir-halo" d="M 1291.9 1071.2 L 1323.3 1080.8 L 1351.4 1088.8 L 1384.3 1091.4 L 1393.5 1091.4 L 1413.5 1088.9"/>
      <path class="fdir-shadow" d="M 1291.9 1071.2 L 1323.3 1080.8 L 1351.4 1088.8 L 1384.3 1091.4 L 1393.5 1091.4 L 1413.5 1088.9"/>
      <path class="fdir-shaft" d="M 1291.9 1071.2 L 1323.3 1080.8 L 1351.4 1088.8 L 1384.3 1091.4 L 1393.5 1091.4 L 1413.5 1088.9" stroke="#92400e" marker-end="url(#head-major)"/>
    </g>    <g class="fdir-arrow major">
      <title>CAN-033: Ryves Canal. Direction: away from nearest Krishna/reservoir endpoint along mapped canal line.</title>
      <path class="fdir-halo" d="M 1464.0 1082.4 L 1484.8 1079.7 L 1557.6 1071.2 L 1570.1 1069.8 L 1587.7 1068.3"/>
      <path class="fdir-shadow" d="M 1464.0 1082.4 L 1484.8 1079.7 L 1557.6 1071.2 L 1570.1 1069.8 L 1587.7 1068.3"/>
      <path class="fdir-shaft" d="M 1464.0 1082.4 L 1484.8 1079.7 L 1557.6 1071.2 L 1570.1 1069.8 L 1587.7 1068.3" stroke="#92400e" marker-end="url(#head-major)"/>
    </g>    <g class="fdir-arrow reservoir">
      <title>WAT-010: Krishna reservoir / Prakasam backwater reach. Direction: reviewed west-to-east / downstream display direction through Vijayawada.</title>
      <path class="fdir-halo" d="M 70.6 1067.9 L 65.6 1130.6 L 82.2 1185.8 L 91.2 1196.1"/>
      <path class="fdir-shadow" d="M 70.6 1067.9 L 65.6 1130.6 L 82.2 1185.8 L 91.2 1196.1"/>
      <path class="fdir-shaft" d="M 70.6 1067.9 L 65.6 1130.6 L 82.2 1185.8 L 91.2 1196.1" stroke="#0284c7" marker-end="url(#head-reservoir)"/>
    </g>    <g class="fdir-arrow reservoir">
      <title>WAT-011: Krishna reservoir / Prakasam backwater reach. Direction: reviewed west-to-east / downstream display direction through Vijayawada.</title>
      <path class="fdir-halo" d="M 113.7 1221.8 L 135.3 1246.5 L 215.9 1308.2"/>
      <path class="fdir-shadow" d="M 113.7 1221.8 L 135.3 1246.5 L 215.9 1308.2"/>
      <path class="fdir-shaft" d="M 113.7 1221.8 L 135.3 1246.5 L 215.9 1308.2" stroke="#0284c7" marker-end="url(#head-reservoir)"/>
    </g>    <g class="fdir-arrow reservoir">
      <title>WAT-012: Krishna reservoir / Prakasam backwater reach. Direction: reviewed west-to-east / downstream display direction through Vijayawada.</title>
      <path class="fdir-halo" d="M 243.0 1329.0 L 264.5 1345.3 L 290.9 1388.7 L 298.4 1444.7"/>
      <path class="fdir-shadow" d="M 243.0 1329.0 L 264.5 1345.3 L 290.9 1388.7 L 298.4 1444.7"/>
      <path class="fdir-shaft" d="M 243.0 1329.0 L 264.5 1345.3 L 290.9 1388.7 L 298.4 1444.7" stroke="#0284c7" marker-end="url(#head-reservoir)"/>
    </g>    <g class="fdir-arrow river">
      <title>KRS-001: Krishna River. Direction: upstream west / northwest to downstream east / southeast along mapped Krishna river line.</title>
      <path class="fdir-halo" d="M 352.4 1412.8 L 447.4 1470.9"/>
      <path class="fdir-shadow" d="M 352.4 1412.8 L 447.4 1470.9"/>
      <path class="fdir-shaft" d="M 352.4 1412.8 L 447.4 1470.9" stroke="#0369a1" marker-end="url(#head-river)"/>
    </g>    <g class="fdir-arrow river">
      <title>KRS-002: Krishna River. Direction: upstream west / northwest to downstream east / southeast along mapped Krishna river line.</title>
      <path class="fdir-halo" d="M 472.7 1491.9 L 555.7 1566.1"/>
      <path class="fdir-shadow" d="M 472.7 1491.9 L 555.7 1566.1"/>
      <path class="fdir-shaft" d="M 472.7 1491.9 L 555.7 1566.1" stroke="#0369a1" marker-end="url(#head-river)"/>
    </g>    <g class="fdir-arrow river">
      <title>KRS-003: Krishna River. Direction: upstream west / northwest to downstream east / southeast along mapped Krishna river line.</title>
      <path class="fdir-halo" d="M 580.3 1588.1 L 639.2 1640.7 L 664.6 1660.8"/>
      <path class="fdir-shadow" d="M 580.3 1588.1 L 639.2 1640.7 L 664.6 1660.8"/>
      <path class="fdir-shaft" d="M 580.3 1588.1 L 639.2 1640.7 L 664.6 1660.8" stroke="#0369a1" marker-end="url(#head-river)"/>
    </g>    <g class="fdir-arrow river">
      <title>KRS-004: Krishna River. Direction: upstream west / northwest to downstream east / southeast along mapped Krishna river line.</title>
      <path class="fdir-halo" d="M 690.4 1681.3 L 708.1 1695.2 L 766.5 1762.2"/>
      <path class="fdir-shadow" d="M 690.4 1681.3 L 708.1 1695.2 L 766.5 1762.2"/>
      <path class="fdir-shaft" d="M 690.4 1681.3 L 708.1 1695.2 L 766.5 1762.2" stroke="#0369a1" marker-end="url(#head-river)"/>
    </g>    <g class="fdir-arrow river">
      <title>KRS-005: Krishna River. Direction: upstream west / northwest to downstream east / southeast along mapped Krishna river line.</title>
      <path class="fdir-halo" d="M 788.2 1787.0 L 861.4 1871.0"/>
      <path class="fdir-shadow" d="M 788.2 1787.0 L 861.4 1871.0"/>
      <path class="fdir-shaft" d="M 788.2 1787.0 L 861.4 1871.0" stroke="#0369a1" marker-end="url(#head-river)"/>
    </g>    <g class="fdir-arrow river">
      <title>KRS-006: Krishna River. Direction: upstream west / northwest to downstream east / southeast along mapped Krishna river line.</title>
      <path class="fdir-halo" d="M 5.8 1109.4 L 80.9 1162.1 L 95.1 1175.7"/>
      <path class="fdir-shadow" d="M 5.8 1109.4 L 80.9 1162.1 L 95.1 1175.7"/>
      <path class="fdir-shaft" d="M 5.8 1109.4 L 80.9 1162.1 L 95.1 1175.7" stroke="#0369a1" marker-end="url(#head-river)"/>
    </g>    <g class="fdir-arrow river">
      <title>KRS-007: Krishna River. Direction: upstream west / northwest to downstream east / southeast along mapped Krishna river line.</title>
      <path class="fdir-halo" d="M 113.8 1193.8 L 193.9 1271.2"/>
      <path class="fdir-shadow" d="M 113.8 1193.8 L 193.9 1271.2"/>
      <path class="fdir-shaft" d="M 113.8 1193.8 L 193.9 1271.2" stroke="#0369a1" marker-end="url(#head-river)"/>
    </g>    <g class="fdir-arrow river">
      <title>KRS-008: Krishna River. Direction: upstream west / northwest to downstream east / southeast along mapped Krishna river line.</title>
      <path class="fdir-halo" d="M 212.7 1289.3 L 292.3 1366.2"/>
      <path class="fdir-shadow" d="M 212.7 1289.3 L 292.3 1366.2"/>
      <path class="fdir-shaft" d="M 212.7 1289.3 L 292.3 1366.2" stroke="#0369a1" marker-end="url(#head-river)"/>
    </g>    <g class="fdir-arrow river">
      <title>KRS-009: Krishna River. Direction: upstream west / northwest to downstream east / southeast along mapped Krishna river line.</title>
      <path class="fdir-halo" d="M 1242.9 1864.2 L 1244.4 1867.7 L 1244.3 1872.5 L 1244.6 1874.9 L 1244.9 1876.2 L 1245.8 1877.4 L 1248.2 1879.2 L 1248.5 1880.8 L 1249.0 1882.5 L 1250.1 1883.9 L 1251.0 1886.2 L 1251.4 1887.7 L 1251.4 1889.2 L 1250.7 1890.0 L 1248.9 1890.3 L 1248.5 1891.5 L 1249.0 1892.8 L 1249.7 1893.6 L 1250.7 1894.4 L 1252.5 1895.8 L 1255.2 1897.2 L 1260.6 1903.6 L 1265.6 1906.6 L 1270.3 1910.4 L 1273.4 1911.6 L 1275.0 1913.0 L 1278.3 1913.3 L 1282.9 1914.9 L 1284.8 1915.9 L 1284.8 1916.0"/>
      <path class="fdir-shadow" d="M 1242.9 1864.2 L 1244.4 1867.7 L 1244.3 1872.5 L 1244.6 1874.9 L 1244.9 1876.2 L 1245.8 1877.4 L 1248.2 1879.2 L 1248.5 1880.8 L 1249.0 1882.5 L 1250.1 1883.9 L 1251.0 1886.2 L 1251.4 1887.7 L 1251.4 1889.2 L 1250.7 1890.0 L 1248.9 1890.3 L 1248.5 1891.5 L 1249.0 1892.8 L 1249.7 1893.6 L 1250.7 1894.4 L 1252.5 1895.8 L 1255.2 1897.2 L 1260.6 1903.6 L 1265.6 1906.6 L 1270.3 1910.4 L 1273.4 1911.6 L 1275.0 1913.0 L 1278.3 1913.3 L 1282.9 1914.9 L 1284.8 1915.9 L 1284.8 1916.0"/>
      <path class="fdir-shaft" d="M 1242.9 1864.2 L 1244.4 1867.7 L 1244.3 1872.5 L 1244.6 1874.9 L 1244.9 1876.2 L 1245.8 1877.4 L 1248.2 1879.2 L 1248.5 1880.8 L 1249.0 1882.5 L 1250.1 1883.9 L 1251.0 1886.2 L 1251.4 1887.7 L 1251.4 1889.2 L 1250.7 1890.0 L 1248.9 1890.3 L 1248.5 1891.5 L 1249.0 1892.8 L 1249.7 1893.6 L 1250.7 1894.4 L 1252.5 1895.8 L 1255.2 1897.2 L 1260.6 1903.6 L 1265.6 1906.6 L 1270.3 1910.4 L 1273.4 1911.6 L 1275.0 1913.0 L 1278.3 1913.3 L 1282.9 1914.9 L 1284.8 1915.9 L 1284.8 1916.0" stroke="#0369a1" marker-end="url(#head-river)"/>
    </g>
  </g>
</svg>
