<svg xmlns="http://www.w3.org/2000/svg" width="1700" height="1916" viewBox="0 0 1700 1916" role="img" aria-label="Vijayawada terrain downslope arrows">
  <defs>
    <marker id="terrain-head" markerUnits="userSpaceOnUse" viewBox="0 0 34 24" refX="30" refY="12" markerWidth="34" markerHeight="24" orient="auto">
      <path d="M2 4 L30 12 L2 20 L10 12 Z" fill="#4c1d95" stroke="#ffffff" stroke-width="2.3" stroke-linejoin="round"/>
    </marker>
    <style>
      .terrain-halo { fill:none; stroke:#ffffff; stroke-width:9; stroke-linecap:round; stroke-linejoin:round; opacity:0.82; }
      .terrain-shaft { fill:none; stroke:#4c1d95; stroke-width:4.4; stroke-linecap:round; stroke-linejoin:round; opacity:0.88; }
    </style>
  </defs>
  <desc>Local DEM/DTM downslope arrows from conditioned hydraulic terrain.</desc>
  <rect width="1700" height="1916" fill="none"/>
  <g id="terrain-flow-arrows" data-feature-count="118">
    <g class="terrain-arrow">
      <title>TER-001: terrain downslope; slope 0.01251 m/m.</title>
      <path class="terrain-halo" d="M 1467.9 34.4 L 1481.3 86.7"/>
      <path class="terrain-shaft" d="M 1467.9 34.4 L 1481.3 86.7" marker-end="url(#terrain-head)"/>
    </g>    <g class="terrain-arrow">
      <title>TER-002: terrain downslope; slope 0.0036 m/m.</title>
      <path class="terrain-halo" d="M 1374.4 275.7 L 1339.2 316.7"/>
      <path class="terrain-shaft" d="M 1374.4 275.7 L 1339.2 316.7" marker-end="url(#terrain-head)"/>
    </g>    <g class="terrain-arrow">
      <title>TER-003: terrain downslope; slope 0.00264 m/m.</title>
      <path class="terrain-halo" d="M 1373.6 392.9 L 1339.9 435.1"/>
      <path class="terrain-shaft" d="M 1373.6 392.9 L 1339.9 435.1" marker-end="url(#terrain-head)"/>
    </g>    <g class="terrain-arrow">
      <title>TER-004: terrain downslope; slope 0.00285 m/m.</title>
      <path class="terrain-halo" d="M 1145.5 520.2 L 1096.7 543.3"/>
      <path class="terrain-shaft" d="M 1145.5 520.2 L 1096.7 543.3" marker-end="url(#terrain-head)"/>
    </g>    <g class="terrain-arrow">
      <title>TER-005: terrain downslope; slope 0.00326 m/m.</title>
      <path class="terrain-halo" d="M 1265.3 537.6 L 1212.5 526.0"/>
      <path class="terrain-shaft" d="M 1265.3 537.6 L 1212.5 526.0" marker-end="url(#terrain-head)"/>
    </g>    <g class="terrain-arrow">
      <title>TER-006: terrain downslope; slope 0.0023 m/m.</title>
      <path class="terrain-halo" d="M 205.3 652.2 L 151.5 647.0"/>
      <path class="terrain-shaft" d="M 205.3 652.2 L 151.5 647.0" marker-end="url(#terrain-head)"/>
    </g>    <g class="terrain-arrow">
      <title>TER-007: terrain downslope; slope 0.01336 m/m.</title>
      <path class="terrain-halo" d="M 631.4 669.4 L 668.1 629.7"/>
      <path class="terrain-shaft" d="M 631.4 669.4 L 668.1 629.7" marker-end="url(#terrain-head)"/>
    </g>    <g class="terrain-arrow">
      <title>TER-008: terrain downslope; slope 0.00769 m/m.</title>
      <path class="terrain-halo" d="M 778.3 674.4 L 756.8 624.8"/>
      <path class="terrain-shaft" d="M 778.3 674.4 L 756.8 624.8" marker-end="url(#terrain-head)"/>
    </g>    <g class="terrain-arrow">
      <title>TER-009: terrain downslope; slope 0.00522 m/m.</title>
      <path class="terrain-halo" d="M 876.7 624.0 L 894.1 675.2"/>
      <path class="terrain-shaft" d="M 876.7 624.0 L 894.1 675.2" marker-end="url(#terrain-head)"/>
    </g>    <g class="terrain-arrow">
      <title>TER-010: terrain downslope; slope 0.00887 m/m.</title>
      <path class="terrain-halo" d="M 1101.1 631.4 L 1141.1 667.7"/>
      <path class="terrain-shaft" d="M 1101.1 631.4 L 1141.1 667.7" marker-end="url(#terrain-head)"/>
    </g>    <g class="terrain-arrow">
      <title>TER-011: terrain downslope; slope 0.00098 m/m.</title>
      <path class="terrain-halo" d="M 1217.7 666.3 L 1260.2 632.9"/>
      <path class="terrain-shaft" d="M 1217.7 666.3 L 1260.2 632.9" marker-end="url(#terrain-head)"/>
    </g>    <g class="terrain-arrow">
      <title>TER-012: terrain downslope; slope 0.00497 m/m.</title>
      <path class="terrain-halo" d="M 157.2 784.2 L 199.6 750.6"/>
      <path class="terrain-shaft" d="M 157.2 784.2 L 199.6 750.6" marker-end="url(#terrain-head)"/>
    </g>    <g class="terrain-arrow">
      <title>TER-013: terrain downslope; slope 0.00699 m/m.</title>
      <path class="terrain-halo" d="M 314.6 747.6 L 277.8 787.2"/>
      <path class="terrain-shaft" d="M 314.6 747.6 L 277.8 787.2" marker-end="url(#terrain-head)"/>
    </g>    <g class="terrain-arrow">
      <title>TER-014: terrain downslope; slope 0.42981 m/m.</title>
      <path class="terrain-halo" d="M 433.0 786.6 L 395.1 748.1"/>
      <path class="terrain-shaft" d="M 433.0 786.6 L 395.1 748.1" marker-end="url(#terrain-head)"/>
    </g>    <g class="terrain-arrow">
      <title>TER-015: terrain downslope; slope 0.00351 m/m.</title>
      <path class="terrain-halo" d="M 518.9 791.1 L 544.9 743.7"/>
      <path class="terrain-shaft" d="M 518.9 791.1 L 544.9 743.7" marker-end="url(#terrain-head)"/>
    </g>    <g class="terrain-arrow">
      <title>TER-016: terrain downslope; slope 0.00115 m/m.</title>
      <path class="terrain-halo" d="M 649.8 740.4 L 649.6 794.4"/>
      <path class="terrain-shaft" d="M 649.8 740.4 L 649.6 794.4" marker-end="url(#terrain-head)"/>
    </g>    <g class="terrain-arrow">
      <title>TER-017: terrain downslope; slope 0.00766 m/m.</title>
      <path class="terrain-halo" d="M 780.9 743.9 L 754.3 790.9"/>
      <path class="terrain-shaft" d="M 780.9 743.9 L 754.3 790.9" marker-end="url(#terrain-head)"/>
    </g>    <g class="terrain-arrow">
      <title>TER-018: terrain downslope; slope 0.01145 m/m.</title>
      <path class="terrain-halo" d="M 908.7 781.2 L 862.2 753.6"/>
      <path class="terrain-shaft" d="M 908.7 781.2 L 862.2 753.6" marker-end="url(#terrain-head)"/>
    </g>    <g class="terrain-arrow">
      <title>TER-019: terrain downslope; slope 0.00691 m/m.</title>
      <path class="terrain-halo" d="M 978.4 778.0 L 1028.1 756.7"/>
      <path class="terrain-shaft" d="M 978.4 778.0 L 1028.1 756.7" marker-end="url(#terrain-head)"/>
    </g>    <g class="terrain-arrow">
      <title>TER-020: terrain downslope; slope 0.00384 m/m.</title>
      <path class="terrain-halo" d="M 1094.2 769.9 L 1148.0 764.9"/>
      <path class="terrain-shaft" d="M 1094.2 769.9 L 1148.0 764.9" marker-end="url(#terrain-head)"/>
    </g>    <g class="terrain-arrow">
      <title>TER-021: terrain downslope; slope 0.00313 m/m.</title>
      <path class="terrain-halo" d="M 1265.9 769.1 L 1212.0 765.7"/>
      <path class="terrain-shaft" d="M 1265.9 769.1 L 1212.0 765.7" marker-end="url(#terrain-head)"/>
    </g>    <g class="terrain-arrow">
      <title>TER-022: terrain downslope; slope 0.00483 m/m.</title>
      <path class="terrain-halo" d="M 1342.2 790.2 L 1371.3 744.6"/>
      <path class="terrain-shaft" d="M 1342.2 790.2 L 1371.3 744.6" marker-end="url(#terrain-head)"/>
    </g>    <g class="terrain-arrow">
      <title>TER-023: terrain downslope; slope 0.0048 m/m.</title>
      <path class="terrain-halo" d="M 1493.3 747.9 L 1455.9 786.9"/>
      <path class="terrain-shaft" d="M 1493.3 747.9 L 1455.9 786.9" marker-end="url(#terrain-head)"/>
    </g>    <g class="terrain-arrow">
      <title>TER-024: terrain downslope; slope 0.00303 m/m.</title>
      <path class="terrain-halo" d="M 1612.3 749.0 L 1572.6 785.7"/>
      <path class="terrain-shaft" d="M 1612.3 749.0 L 1572.6 785.7" marker-end="url(#terrain-head)"/>
    </g>    <g class="terrain-arrow">
      <title>TER-025: terrain downslope; slope 0.00901 m/m.</title>
      <path class="terrain-halo" d="M 160.4 905.4 L 196.4 865.0"/>
      <path class="terrain-shaft" d="M 160.4 905.4 L 196.4 865.0" marker-end="url(#terrain-head)"/>
    </g>    <g class="terrain-arrow">
      <title>TER-026: terrain downslope; slope 0.00422 m/m.</title>
      <path class="terrain-halo" d="M 273.2 899.3 L 319.3 871.1"/>
      <path class="terrain-shaft" d="M 273.2 899.3 L 319.3 871.1" marker-end="url(#terrain-head)"/>
    </g>    <g class="terrain-arrow">
      <title>TER-027: terrain downslope; slope 0.24397 m/m.</title>
      <path class="terrain-halo" d="M 393.8 867.3 L 434.3 903.1"/>
      <path class="terrain-shaft" d="M 393.8 867.3 L 434.3 903.1" marker-end="url(#terrain-head)"/>
    </g>    <g class="terrain-arrow">
      <title>TER-028: terrain downslope; slope 0.00132 m/m.</title>
      <path class="terrain-halo" d="M 558.7 888.6 L 505.1 881.8"/>
      <path class="terrain-shaft" d="M 558.7 888.6 L 505.1 881.8" marker-end="url(#terrain-head)"/>
    </g>    <g class="terrain-arrow">
      <title>TER-029: terrain downslope; slope 0.00851 m/m.</title>
      <path class="terrain-halo" d="M 627.5 900.6 L 672.0 869.8"/>
      <path class="terrain-shaft" d="M 627.5 900.6 L 672.0 869.8" marker-end="url(#terrain-head)"/>
    </g>    <g class="terrain-arrow">
      <title>TER-030: terrain downslope; slope 0.00804 m/m.</title>
      <path class="terrain-halo" d="M 744.3 871.5 L 790.9 898.9"/>
      <path class="terrain-shaft" d="M 744.3 871.5 L 790.9 898.9" marker-end="url(#terrain-head)"/>
    </g>    <g class="terrain-arrow">
      <title>TER-031: terrain downslope; slope 0.00073 m/m.</title>
      <path class="terrain-halo" d="M 889.4 858.5 L 881.5 911.9"/>
      <path class="terrain-shaft" d="M 889.4 858.5 L 881.5 911.9" marker-end="url(#terrain-head)"/>
    </g>    <g class="terrain-arrow">
      <title>TER-032: terrain downslope; slope 0.00582 m/m.</title>
      <path class="terrain-halo" d="M 989.9 861.7 L 1016.6 908.7"/>
      <path class="terrain-shaft" d="M 989.9 861.7 L 1016.6 908.7" marker-end="url(#terrain-head)"/>
    </g>    <g class="terrain-arrow">
      <title>TER-033: terrain downslope; slope 0.00175 m/m.</title>
      <path class="terrain-halo" d="M 1111.7 910.5 L 1130.5 859.9"/>
      <path class="terrain-shaft" d="M 1111.7 910.5 L 1130.5 859.9" marker-end="url(#terrain-head)"/>
    </g>    <g class="terrain-arrow">
      <title>TER-034: terrain downslope; slope 0.01372 m/m.</title>
      <path class="terrain-halo" d="M 1265.9 883.5 L 1212.0 886.9"/>
      <path class="terrain-shaft" d="M 1265.9 883.5 L 1212.0 886.9" marker-end="url(#terrain-head)"/>
    </g>    <g class="terrain-arrow">
      <title>TER-035: terrain downslope; slope 0.00342 m/m.</title>
      <path class="terrain-halo" d="M 1383.0 878.5 L 1330.6 891.9"/>
      <path class="terrain-shaft" d="M 1383.0 878.5 L 1330.6 891.9" marker-end="url(#terrain-head)"/>
    </g>    <g class="terrain-arrow">
      <title>TER-036: terrain downslope; slope 0.00118 m/m.</title>
      <path class="terrain-halo" d="M 1448.3 879.0 L 1500.9 891.4"/>
      <path class="terrain-shaft" d="M 1448.3 879.0 L 1500.9 891.4" marker-end="url(#terrain-head)"/>
    </g>    <g class="terrain-arrow">
      <title>TER-037: terrain downslope; slope 0.00149 m/m.</title>
      <path class="terrain-halo" d="M 44.3 1024.6 L 76.8 981.4"/>
      <path class="terrain-shaft" d="M 44.3 1024.6 L 76.8 981.4" marker-end="url(#terrain-head)"/>
    </g>    <g class="terrain-arrow">
      <title>TER-038: terrain downslope; slope 0.0049 m/m.</title>
      <path class="terrain-halo" d="M 154.1 991.2 L 202.7 1014.8"/>
      <path class="terrain-shaft" d="M 154.1 991.2 L 202.7 1014.8" marker-end="url(#terrain-head)"/>
    </g>    <g class="terrain-arrow">
      <title>TER-039: terrain downslope; slope 0.01265 m/m.</title>
      <path class="terrain-halo" d="M 322.3 1010.3 L 270.2 995.7"/>
      <path class="terrain-shaft" d="M 322.3 1010.3 L 270.2 995.7" marker-end="url(#terrain-head)"/>
    </g>    <g class="terrain-arrow">
      <title>TER-040: terrain downslope; slope 0.18758 m/m.</title>
      <path class="terrain-halo" d="M 387.6 997.4 L 440.5 1008.6"/>
      <path class="terrain-shaft" d="M 387.6 997.4 L 440.5 1008.6" marker-end="url(#terrain-head)"/>
    </g>    <g class="terrain-arrow">
      <title>TER-041: terrain downslope; slope 0.434 m/m.</title>
      <path class="terrain-halo" d="M 518.4 1026.4 L 545.4 979.6"/>
      <path class="terrain-shaft" d="M 518.4 1026.4 L 545.4 979.6" marker-end="url(#terrain-head)"/>
    </g>    <g class="terrain-arrow">
      <title>TER-042: terrain downslope; slope 0.00824 m/m.</title>
      <path class="terrain-halo" d="M 673.4 1016.1 L 626.1 989.9"/>
      <path class="terrain-shaft" d="M 673.4 1016.1 L 626.1 989.9" marker-end="url(#terrain-head)"/>
    </g>    <g class="terrain-arrow">
      <title>TER-043: terrain downslope; slope 0.00446 m/m.</title>
      <path class="terrain-halo" d="M 748.2 984.1 L 786.9 1021.9"/>
      <path class="terrain-shaft" d="M 748.2 984.1 L 786.9 1021.9" marker-end="url(#terrain-head)"/>
    </g>    <g class="terrain-arrow">
      <title>TER-044: terrain downslope; slope 0.00893 m/m.</title>
      <path class="terrain-halo" d="M 906.5 1019.9 L 864.4 986.1"/>
      <path class="terrain-shaft" d="M 906.5 1019.9 L 864.4 986.1" marker-end="url(#terrain-head)"/>
    </g>    <g class="terrain-arrow">
      <title>TER-045: terrain downslope; slope 0.0111 m/m.</title>
      <path class="terrain-halo" d="M 993.1 978.0 L 1013.4 1028.0"/>
      <path class="terrain-shaft" d="M 993.1 978.0 L 1013.4 1028.0" marker-end="url(#terrain-head)"/>
    </g>    <g class="terrain-arrow">
      <title>TER-046: terrain downslope; slope 0.01465 m/m.</title>
      <path class="terrain-halo" d="M 1120.3 1030.0 L 1121.8 976.0"/>
      <path class="terrain-shaft" d="M 1120.3 1030.0 L 1121.8 976.0" marker-end="url(#terrain-head)"/>
    </g>    <g class="terrain-arrow">
      <title>TER-047: terrain downslope; slope 0.00306 m/m.</title>
      <path class="terrain-halo" d="M 1220.8 1023.1 L 1257.0 982.9"/>
      <path class="terrain-shaft" d="M 1220.8 1023.1 L 1257.0 982.9" marker-end="url(#terrain-head)"/>
    </g>    <g class="terrain-arrow">
      <title>TER-048: terrain downslope; slope 0.00964 m/m.</title>
      <path class="terrain-halo" d="M 1340.5 1024.6 L 1373.0 981.4"/>
      <path class="terrain-shaft" d="M 1340.5 1024.6 L 1373.0 981.4" marker-end="url(#terrain-head)"/>
    </g>    <g class="terrain-arrow">
      <title>TER-049: terrain downslope; slope 0.01002 m/m.</title>
      <path class="terrain-halo" d="M 1496.7 1018.5 L 1452.5 987.5"/>
      <path class="terrain-shaft" d="M 1496.7 1018.5 L 1452.5 987.5" marker-end="url(#terrain-head)"/>
    </g>    <g class="terrain-arrow">
      <title>TER-050: terrain downslope; slope 0.01353 m/m.</title>
      <path class="terrain-halo" d="M 40.9 1102.3 L 80.2 1139.3"/>
      <path class="terrain-shaft" d="M 40.9 1102.3 L 80.2 1139.3" marker-end="url(#terrain-head)"/>
    </g>    <g class="terrain-arrow">
      <title>TER-051: terrain downslope; slope 0.00926 m/m.</title>
      <path class="terrain-halo" d="M 200.0 1104.6 L 156.8 1137.0"/>
      <path class="terrain-shaft" d="M 200.0 1104.6 L 156.8 1137.0" marker-end="url(#terrain-head)"/>
    </g>    <g class="terrain-arrow">
      <title>TER-052: terrain downslope; slope 0.26959 m/m.</title>
      <path class="terrain-halo" d="M 321.6 1130.2 L 270.9 1111.4"/>
      <path class="terrain-shaft" d="M 321.6 1130.2 L 270.9 1111.4" marker-end="url(#terrain-head)"/>
    </g>    <g class="terrain-arrow">
      <title>TER-053: terrain downslope; slope 0.24702 m/m.</title>
      <path class="terrain-halo" d="M 387.1 1122.1 L 441.1 1119.5"/>
      <path class="terrain-shaft" d="M 387.1 1122.1 L 441.1 1119.5" marker-end="url(#terrain-head)"/>
    </g>    <g class="terrain-arrow">
      <title>TER-054: terrain downslope; slope 0.07511 m/m.</title>
      <path class="terrain-halo" d="M 525.7 1147.1 L 538.1 1094.5"/>
      <path class="terrain-shaft" d="M 525.7 1147.1 L 538.1 1094.5" marker-end="url(#terrain-head)"/>
    </g>    <g class="terrain-arrow">
      <title>TER-055: terrain downslope; slope 0.01023 m/m.</title>
      <path class="terrain-halo" d="M 648.5 1147.8 L 650.9 1093.8"/>
      <path class="terrain-shaft" d="M 648.5 1147.8 L 650.9 1093.8" marker-end="url(#terrain-head)"/>
    </g>    <g class="terrain-arrow">
      <title>TER-056: terrain downslope; slope 0.00627 m/m.</title>
      <path class="terrain-halo" d="M 794.6 1120.0 L 740.6 1121.6"/>
      <path class="terrain-shaft" d="M 794.6 1120.0 L 740.6 1121.6" marker-end="url(#terrain-head)"/>
    </g>    <g class="terrain-arrow">
      <title>TER-057: terrain downslope; slope 0.01098 m/m.</title>
      <path class="terrain-halo" d="M 871.9 1097.4 L 899.0 1144.2"/>
      <path class="terrain-shaft" d="M 871.9 1097.4 L 899.0 1144.2" marker-end="url(#terrain-head)"/>
    </g>    <g class="terrain-arrow">
      <title>TER-058: terrain downslope; slope 0.01733 m/m.</title>
      <path class="terrain-halo" d="M 976.2 1120.3 L 1030.3 1121.3"/>
      <path class="terrain-shaft" d="M 976.2 1120.3 L 1030.3 1121.3" marker-end="url(#terrain-head)"/>
    </g>    <g class="terrain-arrow">
      <title>TER-059: terrain downslope; slope 0.0229 m/m.</title>
      <path class="terrain-halo" d="M 1126.7 1147.2 L 1115.5 1094.4"/>
      <path class="terrain-shaft" d="M 1126.7 1147.2 L 1115.5 1094.4" marker-end="url(#terrain-head)"/>
    </g>    <g class="terrain-arrow">
      <title>TER-060: terrain downslope; slope 0.14015 m/m.</title>
      <path class="terrain-halo" d="M 1212.2 1117.1 L 1265.7 1124.5"/>
      <path class="terrain-shaft" d="M 1212.2 1117.1 L 1265.7 1124.5" marker-end="url(#terrain-head)"/>
    </g>    <g class="terrain-arrow">
      <title>TER-061: terrain downslope; slope 0.01241 m/m.</title>
      <path class="terrain-halo" d="M 1373.0 1099.2 L 1340.5 1142.4"/>
      <path class="terrain-shaft" d="M 1373.0 1099.2 L 1340.5 1142.4" marker-end="url(#terrain-head)"/>
    </g>    <g class="terrain-arrow">
      <title>TER-062: terrain downslope; slope 0.01738 m/m.</title>
      <path class="terrain-halo" d="M 1479.2 1094.2 L 1470.0 1147.4"/>
      <path class="terrain-shaft" d="M 1479.2 1094.2 L 1470.0 1147.4" marker-end="url(#terrain-head)"/>
    </g>    <g class="terrain-arrow">
      <title>TER-063: terrain downslope; slope 0.00406 m/m.</title>
      <path class="terrain-halo" d="M 41.5 1219.4 L 79.6 1257.8"/>
      <path class="terrain-shaft" d="M 41.5 1219.4 L 79.6 1257.8" marker-end="url(#terrain-head)"/>
    </g>    <g class="terrain-arrow">
      <title>TER-064: terrain downslope; slope 0.00348 m/m.</title>
      <path class="terrain-halo" d="M 159.3 1219.5 L 197.5 1257.7"/>
      <path class="terrain-shaft" d="M 159.3 1219.5 L 197.5 1257.7" marker-end="url(#terrain-head)"/>
    </g>    <g class="terrain-arrow">
      <title>TER-065: terrain downslope; slope 0.48714 m/m.</title>
      <path class="terrain-halo" d="M 323.2 1237.3 L 269.2 1239.9"/>
      <path class="terrain-shaft" d="M 323.2 1237.3 L 269.2 1239.9" marker-end="url(#terrain-head)"/>
    </g>    <g class="terrain-arrow">
      <title>TER-066: terrain downslope; slope 0.02159 m/m.</title>
      <path class="terrain-halo" d="M 429.0 1261.1 L 399.1 1216.1"/>
      <path class="terrain-shaft" d="M 429.0 1261.1 L 399.1 1216.1" marker-end="url(#terrain-head)"/>
    </g>    <g class="terrain-arrow">
      <title>TER-067: terrain downslope; slope 0.01559 m/m.</title>
      <path class="terrain-halo" d="M 538.5 1212.4 L 525.3 1264.8"/>
      <path class="terrain-shaft" d="M 538.5 1212.4 L 525.3 1264.8" marker-end="url(#terrain-head)"/>
    </g>    <g class="terrain-arrow">
      <title>TER-068: terrain downslope; slope 0.00712 m/m.</title>
      <path class="terrain-halo" d="M 625.0 1227.7 L 674.5 1249.5"/>
      <path class="terrain-shaft" d="M 625.0 1227.7 L 674.5 1249.5" marker-end="url(#terrain-head)"/>
    </g>    <g class="terrain-arrow">
      <title>TER-069: terrain downslope; slope 0.02133 m/m.</title>
      <path class="terrain-halo" d="M 766.3 1265.6 L 768.9 1211.6"/>
      <path class="terrain-shaft" d="M 766.3 1265.6 L 768.9 1211.6" marker-end="url(#terrain-head)"/>
    </g>    <g class="terrain-arrow">
      <title>TER-070: terrain downslope; slope 0.00351 m/m.</title>
      <path class="terrain-halo" d="M 910.6 1228.9 L 860.2 1248.3"/>
      <path class="terrain-shaft" d="M 910.6 1228.9 L 860.2 1248.3" marker-end="url(#terrain-head)"/>
    </g>    <g class="terrain-arrow">
      <title>TER-071: terrain downslope; slope 0.0858 m/m.</title>
      <path class="terrain-halo" d="M 1016.9 1261.9 L 989.6 1215.3"/>
      <path class="terrain-shaft" d="M 1016.9 1261.9 L 989.6 1215.3" marker-end="url(#terrain-head)"/>
    </g>    <g class="terrain-arrow">
      <title>TER-072: terrain downslope; slope 0.47099 m/m.</title>
      <path class="terrain-halo" d="M 1123.0 1265.6 L 1119.2 1211.7"/>
      <path class="terrain-shaft" d="M 1123.0 1265.6 L 1119.2 1211.7" marker-end="url(#terrain-head)"/>
    </g>    <g class="terrain-arrow">
      <title>TER-073: terrain downslope; slope 0.44264 m/m.</title>
      <path class="terrain-halo" d="M 1228.0 1213.9 L 1249.9 1263.3"/>
      <path class="terrain-shaft" d="M 1228.0 1213.9 L 1249.9 1263.3" marker-end="url(#terrain-head)"/>
    </g>    <g class="terrain-arrow">
      <title>TER-074: terrain downslope; slope 0.07659 m/m.</title>
      <path class="terrain-halo" d="M 1332.6 1226.6 L 1381.0 1250.7"/>
      <path class="terrain-shaft" d="M 1332.6 1226.6 L 1381.0 1250.7" marker-end="url(#terrain-head)"/>
    </g>    <g class="terrain-arrow">
      <title>TER-075: terrain downslope; slope 0.00556 m/m.</title>
      <path class="terrain-halo" d="M 1501.0 1232.7 L 1448.2 1244.5"/>
      <path class="terrain-shaft" d="M 1501.0 1232.7 L 1448.2 1244.5" marker-end="url(#terrain-head)"/>
    </g>    <g class="terrain-arrow">
      <title>TER-076: terrain downslope; slope 0.00168 m/m.</title>
      <path class="terrain-halo" d="M 1613.9 1222.1 L 1571.0 1255.1"/>
      <path class="terrain-shaft" d="M 1613.9 1222.1 L 1571.0 1255.1" marker-end="url(#terrain-head)"/>
    </g>    <g class="terrain-arrow">
      <title>TER-077: terrain downslope; slope 0.0039 m/m.</title>
      <path class="terrain-halo" d="M 281.5 1333.8 L 311.0 1379.1"/>
      <path class="terrain-shaft" d="M 281.5 1333.8 L 311.0 1379.1" marker-end="url(#terrain-head)"/>
    </g>    <g class="terrain-arrow">
      <title>TER-078: terrain downslope; slope 0.05672 m/m.</title>
      <path class="terrain-halo" d="M 430.0 1334.6 L 398.2 1378.3"/>
      <path class="terrain-shaft" d="M 430.0 1334.6 L 398.2 1378.3" marker-end="url(#terrain-head)"/>
    </g>    <g class="terrain-arrow">
      <title>TER-079: terrain downslope; slope 0.01032 m/m.</title>
      <path class="terrain-halo" d="M 506.2 1348.1 L 557.6 1364.8"/>
      <path class="terrain-shaft" d="M 506.2 1348.1 L 557.6 1364.8" marker-end="url(#terrain-head)"/>
    </g>    <g class="terrain-arrow">
      <title>TER-080: terrain downslope; slope 0.01655 m/m.</title>
      <path class="terrain-halo" d="M 660.5 1331.6 L 638.9 1381.2"/>
      <path class="terrain-shaft" d="M 660.5 1331.6 L 638.9 1381.2" marker-end="url(#terrain-head)"/>
    </g>    <g class="terrain-arrow">
      <title>TER-081: terrain downslope; slope 0.00263 m/m.</title>
      <path class="terrain-halo" d="M 792.5 1367.0 L 742.7 1345.9"/>
      <path class="terrain-shaft" d="M 792.5 1367.0 L 742.7 1345.9" marker-end="url(#terrain-head)"/>
    </g>    <g class="terrain-arrow">
      <title>TER-082: terrain downslope; slope 0.00402 m/m.</title>
      <path class="terrain-halo" d="M 862.5 1342.1 L 908.3 1370.7"/>
      <path class="terrain-shaft" d="M 862.5 1342.1 L 908.3 1370.7" marker-end="url(#terrain-head)"/>
    </g>    <g class="terrain-arrow">
      <title>TER-083: terrain downslope; slope 0.00821 m/m.</title>
      <path class="terrain-halo" d="M 980.1 1342.6 L 1026.5 1370.3"/>
      <path class="terrain-shaft" d="M 980.1 1342.6 L 1026.5 1370.3" marker-end="url(#terrain-head)"/>
    </g>    <g class="terrain-arrow">
      <title>TER-084: terrain downslope; slope 0.35269 m/m.</title>
      <path class="terrain-halo" d="M 1116.4 1329.8 L 1125.8 1383.0"/>
      <path class="terrain-shaft" d="M 1116.4 1329.8 L 1125.8 1383.0" marker-end="url(#terrain-head)"/>
    </g>    <g class="terrain-arrow">
      <title>TER-085: terrain downslope; slope 0.0057 m/m.</title>
      <path class="terrain-halo" d="M 1239.0 1383.4 L 1238.9 1329.4"/>
      <path class="terrain-shaft" d="M 1239.0 1383.4 L 1238.9 1329.4" marker-end="url(#terrain-head)"/>
    </g>    <g class="terrain-arrow">
      <title>TER-086: terrain downslope; slope 0.01066 m/m.</title>
      <path class="terrain-halo" d="M 1341.2 1334.3 L 1372.3 1378.5"/>
      <path class="terrain-shaft" d="M 1341.2 1334.3 L 1372.3 1378.5" marker-end="url(#terrain-head)"/>
    </g>    <g class="terrain-arrow">
      <title>TER-087: terrain downslope; slope 0.01672 m/m.</title>
      <path class="terrain-halo" d="M 1451.8 1342.0 L 1497.5 1370.9"/>
      <path class="terrain-shaft" d="M 1451.8 1342.0 L 1497.5 1370.9" marker-end="url(#terrain-head)"/>
    </g>    <g class="terrain-arrow">
      <title>TER-088: terrain downslope; slope 0.01337 m/m.</title>
      <path class="terrain-halo" d="M 1568.7 1369.4 L 1616.2 1343.5"/>
      <path class="terrain-shaft" d="M 1568.7 1369.4 L 1616.2 1343.5" marker-end="url(#terrain-head)"/>
    </g>    <g class="terrain-arrow">
      <title>TER-089: terrain downslope; slope 0.0012 m/m.</title>
      <path class="terrain-halo" d="M 391.4 1459.6 L 436.8 1488.9"/>
      <path class="terrain-shaft" d="M 391.4 1459.6 L 436.8 1488.9" marker-end="url(#terrain-head)"/>
    </g>    <g class="terrain-arrow">
      <title>TER-090: terrain downslope; slope 0.00204 m/m.</title>
      <path class="terrain-halo" d="M 512.6 1455.3 L 551.2 1493.2"/>
      <path class="terrain-shaft" d="M 512.6 1455.3 L 551.2 1493.2" marker-end="url(#terrain-head)"/>
    </g>    <g class="terrain-arrow">
      <title>TER-091: terrain downslope; slope 0.04381 m/m.</title>
      <path class="terrain-halo" d="M 656.6 1448.1 L 642.9 1500.4"/>
      <path class="terrain-shaft" d="M 656.6 1448.1 L 642.9 1500.4" marker-end="url(#terrain-head)"/>
    </g>    <g class="terrain-arrow">
      <title>TER-092: terrain downslope; slope 0.00908 m/m.</title>
      <path class="terrain-halo" d="M 784.4 1453.1 L 750.8 1495.4"/>
      <path class="terrain-shaft" d="M 784.4 1453.1 L 750.8 1495.4" marker-end="url(#terrain-head)"/>
    </g>    <g class="terrain-arrow">
      <title>TER-093: terrain downslope; slope 0.00844 m/m.</title>
      <path class="terrain-halo" d="M 911.3 1466.6 L 859.5 1481.9"/>
      <path class="terrain-shaft" d="M 911.3 1466.6 L 859.5 1481.9" marker-end="url(#terrain-head)"/>
    </g>    <g class="terrain-arrow">
      <title>TER-094: terrain downslope; slope 0.00717 m/m.</title>
      <path class="terrain-halo" d="M 1030.3 1475.4 L 976.3 1473.1"/>
      <path class="terrain-shaft" d="M 1030.3 1475.4 L 976.3 1473.1" marker-end="url(#terrain-head)"/>
    </g>    <g class="terrain-arrow">
      <title>TER-095: terrain downslope; slope 0.02029 m/m.</title>
      <path class="terrain-halo" d="M 1095.2 1481.8 L 1147.0 1466.6"/>
      <path class="terrain-shaft" d="M 1095.2 1481.8 L 1147.0 1466.6" marker-end="url(#terrain-head)"/>
    </g>    <g class="terrain-arrow">
      <title>TER-096: terrain downslope; slope 0.009 m/m.</title>
      <path class="terrain-halo" d="M 1226.8 1450.1 L 1251.0 1498.4"/>
      <path class="terrain-shaft" d="M 1226.8 1450.1 L 1251.0 1498.4" marker-end="url(#terrain-head)"/>
    </g>    <g class="terrain-arrow">
      <title>TER-097: terrain downslope; slope 0.00906 m/m.</title>
      <path class="terrain-halo" d="M 1370.5 1451.0 L 1343.0 1497.5"/>
      <path class="terrain-shaft" d="M 1370.5 1451.0 L 1343.0 1497.5" marker-end="url(#terrain-head)"/>
    </g>    <g class="terrain-arrow">
      <title>TER-098: terrain downslope; slope 0.0108 m/m.</title>
      <path class="terrain-halo" d="M 1459.0 1496.3 L 1490.2 1452.2"/>
      <path class="terrain-shaft" d="M 1459.0 1496.3 L 1490.2 1452.2" marker-end="url(#terrain-head)"/>
    </g>    <g class="terrain-arrow">
      <title>TER-099: terrain downslope; slope 0.00686 m/m.</title>
      <path class="terrain-halo" d="M 1573.3 1455.1 L 1611.6 1493.3"/>
      <path class="terrain-shaft" d="M 1573.3 1455.1 L 1611.6 1493.3" marker-end="url(#terrain-head)"/>
    </g>    <g class="terrain-arrow">
      <title>TER-100: terrain downslope; slope 0.00433 m/m.</title>
      <path class="terrain-halo" d="M 626.8 1577.8 L 672.7 1606.3"/>
      <path class="terrain-shaft" d="M 626.8 1577.8 L 672.7 1606.3" marker-end="url(#terrain-head)"/>
    </g>    <g class="terrain-arrow">
      <title>TER-101: terrain downslope; slope 0.00665 m/m.</title>
      <path class="terrain-halo" d="M 781.9 1569.1 L 753.3 1614.9"/>
      <path class="terrain-shaft" d="M 781.9 1569.1 L 753.3 1614.9" marker-end="url(#terrain-head)"/>
    </g>    <g class="terrain-arrow">
      <title>TER-102: terrain downslope; slope 0.0359 m/m.</title>
      <path class="terrain-halo" d="M 890.2 1565.4 L 880.7 1618.6"/>
      <path class="terrain-shaft" d="M 890.2 1565.4 L 880.7 1618.6" marker-end="url(#terrain-head)"/>
    </g>    <g class="terrain-arrow">
      <title>TER-103: terrain downslope; slope 0.0029 m/m.</title>
      <path class="terrain-halo" d="M 991.3 1616.2 L 1015.3 1567.8"/>
      <path class="terrain-shaft" d="M 991.3 1616.2 L 1015.3 1567.8" marker-end="url(#terrain-head)"/>
    </g>    <g class="terrain-arrow">
      <title>TER-104: terrain downslope; slope 0.00977 m/m.</title>
      <path class="terrain-halo" d="M 1114.8 1618.3 L 1127.4 1565.8"/>
      <path class="terrain-shaft" d="M 1114.8 1618.3 L 1127.4 1565.8" marker-end="url(#terrain-head)"/>
    </g>    <g class="terrain-arrow">
      <title>TER-105: terrain downslope; slope 0.00615 m/m.</title>
      <path class="terrain-halo" d="M 1262.0 1606.2 L 1215.9 1577.9"/>
      <path class="terrain-shaft" d="M 1262.0 1606.2 L 1215.9 1577.9" marker-end="url(#terrain-head)"/>
    </g>    <g class="terrain-arrow">
      <title>TER-106: terrain downslope; slope 0.01181 m/m.</title>
      <path class="terrain-halo" d="M 1382.1 1601.4 L 1331.4 1582.7"/>
      <path class="terrain-shaft" d="M 1382.1 1601.4 L 1331.4 1582.7" marker-end="url(#terrain-head)"/>
    </g>    <g class="terrain-arrow">
      <title>TER-107: terrain downslope; slope 0.0043 m/m.</title>
      <path class="terrain-halo" d="M 1460.7 1615.2 L 1488.5 1568.9"/>
      <path class="terrain-shaft" d="M 1460.7 1615.2 L 1488.5 1568.9" marker-end="url(#terrain-head)"/>
    </g>    <g class="terrain-arrow">
      <title>TER-108: terrain downslope; slope 0.00223 m/m.</title>
      <path class="terrain-halo" d="M 742.6 1699.5 L 792.5 1720.2"/>
      <path class="terrain-shaft" d="M 742.6 1699.5 L 792.5 1720.2" marker-end="url(#terrain-head)"/>
    </g>    <g class="terrain-arrow">
      <title>TER-109: terrain downslope; slope 0.00158 m/m.</title>
      <path class="terrain-halo" d="M 861.0 1698.3 L 909.9 1721.4"/>
      <path class="terrain-shaft" d="M 861.0 1698.3 L 909.9 1721.4" marker-end="url(#terrain-head)"/>
    </g>    <g class="terrain-arrow">
      <title>TER-110: terrain downslope; slope 0.00112 m/m.</title>
      <path class="terrain-halo" d="M 983.9 1691.0 L 1022.6 1728.7"/>
      <path class="terrain-shaft" d="M 983.9 1691.0 L 1022.6 1728.7" marker-end="url(#terrain-head)"/>
    </g>    <g class="terrain-arrow">
      <title>TER-111: terrain downslope; slope 0.04288 m/m.</title>
      <path class="terrain-halo" d="M 1131.3 1684.8 L 1110.9 1734.9"/>
      <path class="terrain-shaft" d="M 1131.3 1684.8 L 1110.9 1734.9" marker-end="url(#terrain-head)"/>
    </g>    <g class="terrain-arrow">
      <title>TER-112: terrain downslope; slope 0.00883 m/m.</title>
      <path class="terrain-halo" d="M 1225.7 1733.4 L 1252.2 1686.3"/>
      <path class="terrain-shaft" d="M 1225.7 1733.4 L 1252.2 1686.3" marker-end="url(#terrain-head)"/>
    </g>    <g class="terrain-arrow">
      <title>TER-113: terrain downslope; slope 0.01587 m/m.</title>
      <path class="terrain-halo" d="M 1378.6 1693.9 L 1335.0 1725.8"/>
      <path class="terrain-shaft" d="M 1378.6 1693.9 L 1335.0 1725.8" marker-end="url(#terrain-head)"/>
    </g>    <g class="terrain-arrow">
      <title>TER-114: terrain downslope; slope 0.01251 m/m.</title>
      <path class="terrain-halo" d="M 1470.4 1683.1 L 1478.8 1736.5"/>
      <path class="terrain-shaft" d="M 1470.4 1683.1 L 1478.8 1736.5" marker-end="url(#terrain-head)"/>
    </g>    <g class="terrain-arrow">
      <title>TER-115: terrain downslope; slope 0.0026 m/m.</title>
      <path class="terrain-halo" d="M 978.3 1817.4 L 1028.2 1837.9"/>
      <path class="terrain-shaft" d="M 978.3 1817.4 L 1028.2 1837.9" marker-end="url(#terrain-head)"/>
    </g>    <g class="terrain-arrow">
      <title>TER-116: terrain downslope; slope 0.00294 m/m.</title>
      <path class="terrain-halo" d="M 1141.8 1845.0 L 1100.4 1810.3"/>
      <path class="terrain-shaft" d="M 1141.8 1845.0 L 1100.4 1810.3" marker-end="url(#terrain-head)"/>
    </g>    <g class="terrain-arrow">
      <title>TER-117: terrain downslope; slope 0.00204 m/m.</title>
      <path class="terrain-halo" d="M 1494.1 1808.9 L 1455.1 1846.3"/>
      <path class="terrain-shaft" d="M 1494.1 1808.9 L 1455.1 1846.3" marker-end="url(#terrain-head)"/>
    </g>    <g class="terrain-arrow">
      <title>TER-118: terrain downslope; slope 0.00671 m/m.</title>
      <path class="terrain-halo" d="M 1587.5 1801.1 L 1597.4 1854.2"/>
      <path class="terrain-shaft" d="M 1587.5 1801.1 L 1597.4 1854.2" marker-end="url(#terrain-head)"/>
    </g>
  </g>
</svg>
